<?xml version="1.0" encoding="iso-8859-1"?>
<!-- Generator: Adobe Illustrator 19.0.0, SVG Export Plug-In . SVG Version: 6.00 Build 0)  -->
<svg version="1.1" id="Capa_1" xmlns="http://www.w3.org/2000/svg" xmlns:xlink="http://www.w3.org/1999/xlink" x="0px" y="0px"
	 viewBox="0 0 512.001 512.001" style="enable-background:new 0 0 512.001 512.001;" xml:space="preserve">
<g>
	<g>
		<g>
			<path d="M168.335,198.455c-5.105-2.098-10.951,0.352-13.054,5.455c-0.051,0.125-0.102,0.25-0.148,0.375
				c-1.962,5.162,0.633,10.938,5.795,12.898c1.17,0.445,2.37,0.656,3.551,0.656c3.994,0,7.76-2.41,9.306-6.336
				c0.003-0.01,0.007-0.018,0.008-0.02C175.886,206.377,173.44,200.553,168.335,198.455z"/>
			<path d="M158.053,226.082c-5.4-1.199-10.729,2.221-11.917,7.613c-3.064,13.906-5.327,30.193-6.724,48.408
				c-0.422,5.508,3.699,10.313,9.206,10.736c0.261,0.02,0.519,0.029,0.775,0.029c5.175,0,9.558-3.99,9.96-9.236
				c1.326-17.285,3.45-32.639,6.313-45.635C166.856,232.605,163.448,227.27,158.053,226.082z"/>
			<path d="M327.82,141.772c-8.264,0-15.002,6.738-15.002,14.998c0,8.264,6.738,15.002,15.002,15.002
				c8.26,0,14.998-6.738,14.998-15.002C342.818,148.51,336.08,141.772,327.82,141.772z"/>
			<path d="M337.9,471.998h0.236c5.523,0,10-4.477,10-10c0-5.522-4.477-10-10-10H337.9c-5.523,0-10,4.478-10,10
				C327.9,467.522,332.377,471.998,337.9,471.998z"/>
			<path d="M480.57,226.807c-4.074-26.977-24.326-42.553-28.246-45.34l-60.031-52.027c3.676-0.875,7.344-2.135,10.947-3.809
				c18.422-8.549,32.48-26.057,35.818-44.604c6.527-36.26-17.234-62.254-43.68-71.932c-15.012-5.494-31.332-6.203-45.957-1.996
				c-11.102,3.193-20.781,9.027-28.617,17.129c-5.43-8.691-12.152-16.596-20.475-22.42c-2.195-1.535-4.914-2.127-7.549-1.643
				c-4.289,0.791-15.57,5.231-24.256,29.305c-77.05,1.633-136.778,29.4-177.603,82.605c-18.62,24.269-33.17,53.868-43.244,87.974
				c-9.041,30.609-14.532,64.975-16.321,102.145c-3.09,64.197,4.994,136.074,22.764,202.393c0.016,0.057,0.037,0.111,0.054,0.168
				c0.044,0.152,0.091,0.303,0.142,0.453c0.05,0.147,0.104,0.291,0.16,0.436c0.052,0.133,0.103,0.266,0.162,0.396
				c0.075,0.172,0.158,0.338,0.242,0.504c0.05,0.098,0.096,0.195,0.148,0.291c0.141,0.252,0.289,0.498,0.448,0.736
				c0.005,0.006,0.009,0.014,0.013,0.02c0.176,0.262,0.365,0.514,0.564,0.754c0.02,0.025,0.043,0.049,0.064,0.074
				c0.171,0.205,0.35,0.402,0.537,0.592c0.058,0.059,0.118,0.113,0.178,0.172c0.154,0.148,0.312,0.293,0.475,0.432
				c0.08,0.066,0.16,0.133,0.242,0.197c0.15,0.121,0.305,0.236,0.462,0.348c0.093,0.064,0.186,0.133,0.281,0.195
				c0.161,0.105,0.325,0.201,0.491,0.299c0.096,0.055,0.188,0.113,0.285,0.164c0.25,0.135,0.506,0.258,0.768,0.371
				c0.1,0.043,0.201,0.076,0.302,0.115c0.182,0.072,0.364,0.141,0.55,0.201c0.11,0.037,0.223,0.068,0.335,0.1
				c0.191,0.055,0.384,0.105,0.579,0.148c0.1,0.023,0.199,0.045,0.3,0.063c0.238,0.047,0.478,0.082,0.721,0.111
				c0.062,0.006,0.122,0.018,0.185,0.023c0.319,0.031,0.641,0.051,0.966,0.051c0.015,0,0.03-0.002,0.045-0.002h0.001h40.716
				c0.019,0,0.038,0,0.058,0h309.91c4.896,0,9.074-3.547,9.867-8.381c7.6-46.281,2.994-84.594-14.08-117.123
				c-14.76-28.125-36.141-47.057-55.004-63.76c-18.811-16.654-34.24-30.318-37.41-48.025h35.219
				c11.877,31.664,35.941,33.443,46.246,32.609c13.752-1.107,26.988-8.053,34.389-16.92l10.582,6.143
				c4.246,2.469,9.652,1.484,12.762-2.315C475.938,271.17,483.844,248.486,480.57,226.807z M388.506,27.877
				c17.225,6.303,35.645,23.078,30.869,49.607c-2.186,12.145-12.053,24.203-24.555,30.006c-5.672,2.633-16.703,6.074-27.656,0.17
				l-3.494-3.027c-4.34-4.648-8.303-11.947-8.926-19.029c-0.43-4.893,0.773-8.684,3.676-11.588
				c1.771-1.771,7.158-3.588,11.572-2.408c2.818,0.756,4.471,2.568,5.357,5.877c1.43,5.336,6.914,8.504,12.246,7.072
				c5.336-1.43,8.502-6.912,7.072-12.248c-2.754-10.279-9.678-17.389-19.5-20.02c-10.652-2.855-23.642,0.336-30.891,7.586
				c-2.428,2.428-4.398,5.137-5.916,8.07c-1.795-7.279-4.305-15.713-7.771-24.275C344.945,23.424,369.541,20.939,388.506,27.877z
				 M93.918,486.473c0.081,1.859,0.162,3.701,0.242,5.525H71.508C42.683,378.857,35.129,217.641,106.79,124.252
				c35.891-46.773,88.406-71.828,156.218-74.596c-0.998,4.885-1.896,10.24-2.668,16.129c-41.665,5.934-76.061,24.18-102.332,54.311
				c-23.579,27.041-41.071,64.393-51.993,111.012C86.381,314.91,90.737,414.07,93.918,486.473z M446.75,274.832l-11.592-6.732
				l-16.734-11.809c-4.512-3.186-10.752-2.109-13.936,2.402c-3.184,4.514-2.107,10.752,2.404,13.938l9.619,6.789
				c-4.211,3.674-11.945,7.977-20.729,8.051c-0.076,0-0.15,0-0.225,0c-12.299,0-20.897-8.553-25.561-25.426
				c-1.199-4.334-5.143-7.336-9.639-7.336h-52.906c-0.053,0-0.107,0-0.162,0h-9.016c-19.385,0-35.154-15.771-35.154-35.158
				c0-5.523-4.479-10-10.001-10c-5.522,0-10,4.477-10,10c0,30.199,24.395,54.807,54.512,55.154
				c2.92,26.277,23.135,44.18,44.393,63.004c29.471,26.094,62.105,55.004,65.59,114.289h-40.75c-5.523,0-10,4.478-10,10
				c0,5.523,4.477,10,10,10h40.834c-0.297,6.352-0.891,13.008-1.82,20h-291.7c-0.092-2.111-0.186-4.244-0.28-6.402
				c-3.129-71.24-7.416-168.809,11.588-249.926c21.98-93.828,69.377-143.211,144.896-150.969c4.713-0.482,8.439-4.209,8.926-8.922
				c1.482-14.369,3.633-25.121,5.941-33.162c0.1-0.291,0.185-0.588,0.258-0.891c3.072-10.383,6.391-16.053,8.77-19.057
				c6.553,6.299,11.666,14.641,15.631,23.344c0.178,0.512,0.402,1.008,0.664,1.486c9.318,21.24,11.938,44.066,11.975,44.412
				c0.271,2.514,1.484,4.832,3.395,6.488l23.867,20.684c1.672,1.709,3.445,3.238,5.285,4.582l84.531,73.262
				c0.326,0.281,0.668,0.541,1.025,0.779c0.17,0.111,17.086,11.832,20.142,32.084C462.895,243.709,458.174,258.832,446.75,274.832z"
				/>
		</g>
	</g>
</g>
<g>
</g>
<g>
</g>
<g>
</g>
<g>
</g>
<g>
</g>
<g>
</g>
<g>
</g>
<g>
</g>
<g>
</g>
<g>
</g>
<g>
</g>
<g>
</g>
<g>
</g>
<g>
</g>
<g>
</g>
</svg>
