<?xml version="1.0" encoding="utf-8"?>
<!-- Generator: Adobe Illustrator 22.1.0, SVG Export Plug-In . SVG Version: 6.00 Build 0)  -->
<svg version="1.1" id="Capa_1" xmlns="http://www.w3.org/2000/svg" xmlns:xlink="http://www.w3.org/1999/xlink" x="0px" y="0px"
	 viewBox="0 0 512 512" style="enable-background:new 0 0 512 512;" xml:space="preserve">
<style type="text/css">
	.st0{opacity:0.5;}
	.st1{fill:#F3DB71;}
	.st2{fill:#FFFFFF;}
	.st3{font-family:'Cloud-Bold';}
	.st4{font-size:135px;}
</style>
<g class="st0">
	<g>
		<g>
			<path class="st1" d="M190.9,213.3c-3.8-1.6-8.1,0.3-9.7,4c0,0.1-0.1,0.2-0.1,0.3c-1.5,3.8,0.5,8.1,4.3,9.6
				c0.9,0.3,1.8,0.5,2.6,0.5c3,0,5.8-1.8,6.9-4.7c0,0,0,0,0,0C196.5,219.2,194.7,214.8,190.9,213.3z"/>
			<path class="st1" d="M183.3,233.8c-4-0.9-8,1.6-8.8,5.7c-2.3,10.3-4,22.4-5,35.9c-0.3,4.1,2.7,7.7,6.8,8c0.2,0,0.4,0,0.6,0
				c3.8,0,7.1-3,7.4-6.9c1-12.8,2.6-24.2,4.7-33.9C189.8,238.6,187.3,234.7,183.3,233.8z"/>
			<path class="st1" d="M309.3,171.2c-6.1,0-11.1,5-11.1,11.1c0,6.1,5,11.1,11.1,11.1c6.1,0,11.1-5,11.1-11.1
				C320.4,176.2,315.4,171.2,309.3,171.2z"/>
			<path class="st1" d="M316.8,416.3h0.2c4.1,0,7.4-3.3,7.4-7.4c0-4.1-3.3-7.4-7.4-7.4h-0.2c-4.1,0-7.4,3.3-7.4,7.4
				C309.4,413,312.7,416.3,316.8,416.3z"/>
			<path class="st1" d="M422.7,234.3c-3-20-18.1-31.6-21-33.7l-44.6-38.6c2.7-0.6,5.5-1.6,8.1-2.8c13.7-6.3,24.1-19.3,26.6-33.1
				c4.8-26.9-12.8-46.2-32.4-53.4c-11.1-4.1-23.3-4.6-34.1-1.5c-8.2,2.4-15.4,6.7-21.2,12.7c-4-6.5-9-12.3-15.2-16.6
				c-1.6-1.1-3.6-1.6-5.6-1.2c-3.2,0.6-11.6,3.9-18,21.7c-57.2,1.2-101.5,21.8-131.8,61.3c-13.8,18-24.6,40-32.1,65.3
				c-6.7,22.7-10.8,48.2-12.1,75.8c-2.3,47.6,3.7,101,16.9,150.2c0,0,0,0.1,0,0.1c0,0.1,0.1,0.2,0.1,0.3c0,0.1,0.1,0.2,0.1,0.3
				c0,0.1,0.1,0.2,0.1,0.3c0.1,0.1,0.1,0.3,0.2,0.4c0,0.1,0.1,0.1,0.1,0.2c0.1,0.2,0.2,0.4,0.3,0.5c0,0,0,0,0,0
				c0.1,0.2,0.3,0.4,0.4,0.6c0,0,0,0,0,0.1c0.1,0.2,0.3,0.3,0.4,0.4c0,0,0.1,0.1,0.1,0.1c0.1,0.1,0.2,0.2,0.4,0.3
				c0.1,0,0.1,0.1,0.2,0.1c0.1,0.1,0.2,0.2,0.3,0.3c0.1,0,0.1,0.1,0.2,0.1c0.1,0.1,0.2,0.1,0.4,0.2c0.1,0,0.1,0.1,0.2,0.1
				c0.2,0.1,0.4,0.2,0.6,0.3c0.1,0,0.1,0.1,0.2,0.1c0.1,0.1,0.3,0.1,0.4,0.1c0.1,0,0.2,0.1,0.2,0.1c0.1,0,0.3,0.1,0.4,0.1
				c0.1,0,0.1,0,0.2,0c0.2,0,0.4,0.1,0.5,0.1c0,0,0.1,0,0.1,0c0.2,0,0.5,0,0.7,0c0,0,0,0,0,0h0h30.2c0,0,0,0,0,0h230
				c3.6,0,6.7-2.6,7.3-6.2c5.6-34.3,2.2-62.8-10.4-86.9c-11-20.9-26.8-34.9-40.8-47.3c-14-12.4-25.4-22.5-27.8-35.6h26.1
				c8.8,23.5,26.7,24.8,34.3,24.2c10.2-0.8,20-6,25.5-12.6l7.9,4.6c3.2,1.8,7.2,1.1,9.5-1.7C419.2,267.3,425.1,250.4,422.7,234.3z
				 M354.3,86.7c12.8,4.7,26.5,17.1,22.9,36.8c-1.6,9-8.9,18-18.2,22.3c-4.2,2-12.4,4.5-20.5,0.1l-2.6-2.2
				c-3.2-3.4-6.2-8.9-6.6-14.1c-0.3-3.6,0.6-6.4,2.7-8.6c1.3-1.3,5.3-2.7,8.6-1.8c2.1,0.6,3.3,1.9,4,4.4c1.1,4,5.1,6.3,9.1,5.2
				c4-1.1,6.3-5.1,5.2-9.1c-2-7.6-7.2-12.9-14.5-14.9c-7.9-2.1-17.5,0.2-22.9,5.6c-1.8,1.8-3.3,3.8-4.4,6c-1.3-5.4-3.2-11.7-5.8-18
				C322,83.4,340.3,81.5,354.3,86.7z M135.7,427.1c0.1,1.4,0.1,2.7,0.2,4.1h-16.8c-21.4-84-27-203.6,26.2-272.9
				c26.6-34.7,65.6-53.3,115.9-55.4c-0.7,3.6-1.4,7.6-2,12c-30.9,4.4-56.5,17.9-75.9,40.3c-17.5,20.1-30.5,47.8-38.6,82.4
				C130.1,299.7,133.3,373.3,135.7,427.1z M397.6,270l-8.6-5l-12.4-8.8c-3.3-2.4-8-1.6-10.3,1.8c-2.4,3.4-1.6,8,1.8,10.3l7.1,5
				c-3.1,2.7-8.9,5.9-15.4,6c-0.1,0-0.1,0-0.2,0c-9.1,0-15.5-6.3-19-18.9c-0.9-3.2-3.8-5.4-7.2-5.4h-39.3c0,0-0.1,0-0.1,0h-6.7
				c-14.4,0-26.1-11.7-26.1-26.1c0-4.1-3.3-7.4-7.4-7.4c-4.1,0-7.4,3.3-7.4,7.4c0,22.4,18.1,40.7,40.5,40.9
				c2.2,19.5,17.2,32.8,32.9,46.8c21.9,19.4,46.1,40.8,48.7,84.8h-30.2c-4.1,0-7.4,3.3-7.4,7.4c0,4.1,3.3,7.4,7.4,7.4h30.3
				c-0.2,4.7-0.7,9.7-1.4,14.8H150.7c-0.1-1.6-0.1-3.1-0.2-4.8c-2.3-52.9-5.5-125.3,8.6-185.5c16.3-69.6,51.5-106.3,107.5-112
				c3.5-0.4,6.3-3.1,6.6-6.6c1.1-10.7,2.7-18.6,4.4-24.6c0.1-0.2,0.1-0.4,0.2-0.7c2.3-7.7,4.7-11.9,6.5-14.1
				c4.9,4.7,8.7,10.9,11.6,17.3c0.1,0.4,0.3,0.7,0.5,1.1c6.9,15.8,8.9,32.7,8.9,33c0.2,1.9,1.1,3.6,2.5,4.8l17.7,15.4
				c1.2,1.3,2.6,2.4,3.9,3.4l62.7,54.4c0.2,0.2,0.5,0.4,0.8,0.6c0.1,0.1,12.7,8.8,14.9,23.8C409.6,246.9,406.1,258.1,397.6,270z"/>
		</g>
	</g>
</g>
<text transform="matrix(1 0 0 1 93.3276 285.0916)" class="st2 st3 st4">พาหนะ</text>
</svg>
