<?xml version="1.0" encoding="utf-8"?>
<!-- Generator: Adobe Illustrator 22.1.0, SVG Export Plug-In . SVG Version: 6.00 Build 0)  -->
<svg version="1.1" id="Capa_1" xmlns="http://www.w3.org/2000/svg" xmlns:xlink="http://www.w3.org/1999/xlink" x="0px" y="0px"
	 viewBox="0 0 512 512" style="enable-background:new 0 0 512 512;" xml:space="preserve">
<style type="text/css">
	.st0{opacity:0.5;}
	.st1{fill:#F3DB71;}
	.st2{fill:#FFFFFF;}
	.st3{font-family:'Cloud-Bold';}
	.st4{font-size:135px;}
</style>
<g class="st0">
	<g>
		<g>
			<path class="st1" d="M318.8,200.7c1.9,0,3.8-0.7,5.2-2.2l0.1-0.1c2.9-2.9,2.9-7.6,0-10.5c-2.9-2.9-7.6-2.9-10.5,0l-0.1,0.1
				c-2.9,2.9-2.9,7.6,0,10.5C315,199.9,316.9,200.7,318.8,200.7z"/>
			<path class="st1" d="M439.5,397.4l-71-71l14.4-19.1c2.2-3,1.9-7.1-0.7-9.7l-24.3-24.3c-2.6-2.6-6.8-2.9-9.7-0.7l-18.3,13.8
				l-21.6-25.8l135.1-113.2c1.7-1.4,2.7-3.5,2.7-5.7V73.4c0-4.1-3.3-7.4-7.4-7.4h-68.3c-2.2,0-4.3,1-5.7,2.7L256,198.3L147.5,68.7
				c-1.4-1.7-3.5-2.7-5.7-2.7H73.4c-4.1,0-7.4,3.3-7.4,7.4v68.3c0,2.2,1,4.3,2.7,5.7l135.1,113.2l-21.6,25.8l-18.3-13.8
				c-3-2.2-7.1-1.9-9.7,0.7l-24.3,24.3c-2.6,2.6-2.9,6.8-0.7,9.7l14.4,19.1l-71,71c-8.7,8.7-8.7,22.8,0,31.5l10.6,10.6
				c4.2,4.2,9.8,6.5,15.7,6.5c6,0,11.5-2.3,15.7-6.5l71-71l19.1,14.4c1.3,1,2.9,1.5,4.5,1.5c1.9,0,3.8-0.7,5.3-2.2l24.3-24.3
				c2.6-2.6,2.9-6.8,0.7-9.7l-13.8-18.3l30.4-25.5l30.4,25.5l-13.8,18.3c-2.2,3-1.9,7.1,0.7,9.7l24.3,24.3c1.4,1.4,3.3,2.2,5.3,2.2
				c1.6,0,3.1-0.5,4.5-1.5l19.1-14.4l71,71c4.2,4.2,9.8,6.5,15.7,6.5c6,0,11.5-2.3,15.7-6.5l10.6-10.6c4.2-4.2,6.5-9.8,6.5-15.7
				C446,407.2,443.7,401.6,439.5,397.4z M317.9,295.3l-6.9,5.2l-23-23l8.8-7.4L317.9,295.3z M80.9,138.3V80.8h57.5l108,129l-12,14.3
				l-21-21.1c-2.9-2.9-7.6-2.9-10.5,0c-2.9,2.9-2.9,7.6,0,10.5l22,22l-4.4,5.2l-7.1,8.5L80.9,138.3z M104.1,429
				c-1.4,1.4-3.3,2.2-5.2,2.2c-2,0-3.9-0.8-5.2-2.2L83,418.4c-2.9-2.9-2.9-7.6,0-10.5l15.2-15.2l24.1,18.1L104.1,429z M132.9,400.2
				l-24.1-18.1l17.9-17.9l24.1,18.1L132.9,400.2z M161.4,371.6l-24.1-18.1l15.2-15.2l8.4,11.2c0.2,0.3,0.5,0.6,0.8,0.9
				c0.2,0.2,0.4,0.4,0.7,0.6l4.1,3.1l7,5.3L161.4,371.6z M208.5,367.1l-19.1-14.3c0,0,0,0,0,0l-17.2-12.9l-12.9-17.2c0,0,0,0,0,0
				l-14.4-19.1l15.2-15.2l36.3,27.3l27.3,36.3L208.5,367.1z M216.7,317.9l-5.2-6.9l97.4-97.4c2.9-2.9,2.9-7.6,0-10.5
				c-2.9-2.9-7.6-2.9-10.5,0L201,300.5l-6.9-5.2l25.8-30.9c0,0,0,0,0,0l17-20.3L373.7,80.8h57.5v57.5L272.6,271.1
				c-0.2,0.2-0.5,0.4-0.7,0.6L216.7,317.9z M267.6,294.7l9.1-7.6l23.9,23.9l-5.2,6.9L267.6,294.7z M322.6,352.7
				C322.6,352.7,322.6,352.7,322.6,352.7l-19.1,14.4l-15.2-15.2l14.1-18.8c0,0,0,0,0,0l13.1-17.5l36.3-27.3l15.2,15.2l-14.4,19.1
				c0,0,0,0,0,0l-12.9,17.2L322.6,352.7z M338.4,359.4l11.2-8.4c0.6-0.4,1.1-0.9,1.5-1.5l8.4-11.2l15.2,15.2l-24.1,18.1L338.4,359.4
				z M361.2,382.2l24.1-18.1l17.9,17.9l-24.1,18.1L361.2,382.2z M429,418.4L418.4,429c-1.4,1.4-3.3,2.2-5.2,2.2
				c-2,0-3.9-0.8-5.2-2.2l-18.2-18.2l24.1-18.1l15.2,15.2c1.4,1.4,2.2,3.3,2.2,5.2C431.2,415.2,430.4,417,429,418.4z"/>
			<path class="st1" d="M198.1,187.9c-2.9-2.9-7.6-2.9-10.5,0c-2.9,2.9-2.9,7.6,0,10.5l0.1,0.1c1.4,1.4,3.3,2.2,5.2,2.2
				c1.9,0,3.8-0.7,5.2-2.2c2.9-2.9,2.9-7.6,0-10.5L198.1,187.9z"/>
		</g>
	</g>
</g>
<text transform="matrix(1 0 0 1 147.1242 285.0914)" class="st2 st3 st4">พลัง</text>
</svg>
