<?xml version="1.0" encoding="utf-8"?>
<!-- Generator: Adobe Illustrator 22.1.0, SVG Export Plug-In . SVG Version: 6.00 Build 0)  -->
<svg version="1.1" id="Capa_1" xmlns="http://www.w3.org/2000/svg" xmlns:xlink="http://www.w3.org/1999/xlink" x="0px" y="0px"
	 viewBox="0 0 512 512" style="enable-background:new 0 0 512 512;" xml:space="preserve">
<style type="text/css">
	.st0{opacity:0.5;}
	.st1{fill:#F3DB71;}
	.st2{fill:#FFFFFF;}
	.st3{font-family:'Cloud-Bold';}
	.st4{font-size:135px;}
</style>
<g class="st0">
	<g>
		<g>
			<path class="st1" d="M472.7,253.4c-4.5-2.7-9.5-4.6-14.7-5.5c3.6-2,7-4.5,10-7.5c10.9-10.9,15.2-26.9,11.2-41.8
				c-0.8-3-3.2-5.4-6.2-6.2c-3.6-1-7.4-1.5-11.2-1.5c-1.5,0-3,0.1-4.5,0.2c3-2.9,5.5-6.2,7.6-9.9c7.5-13.5,7.2-30-0.7-43.2
				c-1.6-2.7-4.6-4.3-7.7-4.3c-5.4,0.1-10.6,1.2-15.5,3.2c2.1-3.6,3.6-7.5,4.6-11.7c3.5-15-1.4-30.8-12.6-41.4
				c-2.3-2.1-5.6-2.9-8.6-2c-6.8,2.1-12.9,5.8-17.8,10.7c-0.9-2.2-2-4.3-3.2-6.3c-8-12.7-21.7-20.3-36.7-20.3c-0.5,0-1,0-1.5,0
				c-3.1,0.1-6,1.9-7.5,4.7c-7.2,13.6-6.6,30.2,1.5,43.2c1.3,2,2.7,3.9,4.2,5.7c-6.5,2.3-12.5,6.1-17.4,11.3c-2.1,2.3-2.9,5.6-2,8.6
				c3.2,10.6,10.4,19.4,19.7,24.8c-0.3,0.9-0.4,1.8-0.4,2.7c0.2,11.1,4.7,21.5,12.2,29.3c-0.5,0.8-0.9,1.6-1.1,2.5
				c-2.9,10.7-1.4,21.9,3.6,31.5c-0.7,0.6-1.3,1.3-1.8,2.1c-5.7,9.5-7.4,20.7-5.2,31.3c-0.8,0.4-1.6,0.9-2.3,1.5
				c-8.1,7.5-12.8,17.9-13.6,28.6c-0.9,0.1-1.8,0.4-2.6,0.8c-9.9,5-17.3,13.6-21,23.7c-0.9-0.1-1.8-0.1-2.7,0.1
				c-15.1,3-27.6,13.8-32.6,28.4c-3.8,10.9-2.9,22.8,2,33c-13.5,3.6-27.7,5.6-42.3,5.6c-14.6,0-28.8-1.9-42.3-5.6
				c4.9-10.2,5.8-22,2-33c-5-14.6-17.5-25.4-32.6-28.4c-0.9-0.2-1.8-0.2-2.7-0.1c-3.7-10.1-11.1-18.7-21-23.7
				c-0.8-0.4-1.7-0.7-2.6-0.8c-0.8-10.8-5.5-21.1-13.6-28.6c-0.7-0.6-1.5-1.1-2.3-1.5c2.2-10.6,0.5-21.8-5.2-31.3
				c-0.5-0.8-1.1-1.5-1.8-2.1c5-9.5,6.5-20.8,3.6-31.5c-0.2-0.9-0.6-1.7-1.1-2.5c7.5-7.8,12-18.2,12.2-29.3c0-0.9-0.1-1.8-0.4-2.7
				c9.3-5.4,16.5-14.2,19.7-24.8c0.9-3,0.2-6.3-2-8.6c-4.8-5.2-10.8-9-17.4-11.3c1.5-1.8,3-3.6,4.2-5.7c8.2-13.1,8.7-29.6,1.5-43.2
				c-1.5-2.8-4.3-4.5-7.5-4.7c-0.5,0-1,0-1.5,0c-15,0-28.8,7.6-36.7,20.3c-1.3,2-2.3,4.2-3.2,6.3c-4.9-4.9-11-8.6-17.8-10.7
				c-3-0.9-6.3-0.2-8.6,2C67.9,94.5,63,110.3,66.5,125.3c1,4.2,2.5,8.1,4.6,11.7c-4.9-2-10.1-3.1-15.5-3.2c-3.2-0.1-6.1,1.6-7.7,4.3
				c-7.9,13.2-8.2,29.8-0.8,43.2c2.1,3.7,4.6,7,7.6,9.9c-1.5-0.2-3-0.2-4.5-0.2c-3.8,0-7.5,0.5-11.2,1.5c-3,0.8-5.4,3.2-6.2,6.2
				c-4,14.9,0.3,30.9,11.2,41.8c3,3,6.4,5.5,10,7.5c-5.2,0.9-10.2,2.8-14.7,5.5c-2.7,1.6-4.3,4.5-4.3,7.7
				c0.3,15.4,8.8,29.6,22.3,37.1c3.7,2,7.6,3.5,11.7,4.4c-4.7,2.3-9,5.5-12.7,9.4c-2.1,2.3-2.9,5.6-2,8.6
				c4.5,14.7,16.6,26,31.6,29.5c3.2,0.7,6.5,1.1,9.8,1.1c0.9,0,1.8,0,2.7-0.1c-3.9,3.5-7.2,7.7-9.6,12.5c-1.4,2.8-1.3,6.1,0.5,8.8
				c8,12.3,21.6,19.7,36.2,19.7c0.8,0,1.5,0,2.3-0.1c4.3-0.2,8.4-1.1,12.3-2.5c-2.8,4.4-4.8,9.4-5.9,14.7c-0.6,3.1,0.5,6.3,2.9,8.3
				c7.9,6.8,18,10.6,28.4,10.6c4.8,0,9.5-0.8,14.1-2.4c12-4.1,21.5-13.4,26.1-25c5,1.5,10.1,2.7,15.3,3.7c-3.3,3.2-6.2,6.9-8.6,11
				c-2.4,4.2-1,9.6,3.2,12c4.2,2.4,9.6,1,12-3.2c5.8-10.1,16.7-16.4,28.3-16.4c11.7,0,22.5,6.3,28.3,16.4c1.6,2.8,4.6,4.4,7.6,4.4
				c1.5,0,3-0.4,4.4-1.2c4.2-2.4,5.6-7.8,3.2-12c-2.4-4.1-5.3-7.8-8.6-11c5.2-1,10.3-2.3,15.3-3.7c4.6,11.6,14.1,20.9,26.1,25
				c4.6,1.6,9.3,2.4,14.1,2.4c0,0,0,0,0,0c10.4,0,20.5-3.8,28.4-10.6c2.4-2.1,3.5-5.2,2.9-8.3c-1-5.3-3.1-10.3-5.9-14.7
				c3.9,1.4,8.1,2.3,12.3,2.5c0.8,0,1.5,0,2.3,0.1c14.7,0,28.2-7.4,36.2-19.7c1.7-2.6,1.9-6,0.5-8.8c-2.4-4.8-5.7-9-9.6-12.5
				c0.9,0.1,1.8,0.1,2.7,0.1c0,0,0,0,0,0c3.3,0,6.5-0.4,9.8-1.1c15-3.5,27.1-14.8,31.6-29.5c0.9-3,0.2-6.3-2-8.6
				c-3.6-3.9-8-7.1-12.7-9.4c4.1-0.9,8-2.4,11.7-4.4c13.5-7.5,22-21.7,22.3-37.1C477,257.9,475.4,255,472.7,253.4z M134.7,281.9
				c4.1,5.9,5.6,13.3,4,20.5c-1.6,7.1-6.3,13.2-12.5,16.7c-4.1-5.9-5.6-13.3-4-20.5C123.8,291.5,128.5,285.4,134.7,281.9z
				 M106.3,258.7c3.5-6.4,9.7-10.9,16.6-12.6c2.3,6.8,1.7,14.4-1.8,20.8c-3.5,6.4-9.7,10.9-16.6,12.6
				C102.1,272.7,102.7,265.1,106.3,258.7z M95.8,235.6c-0.4,0-0.9,0-1.3,0c-0.3-7.2,2.3-14.3,7.5-19.5c4.9-4.9,11.3-7.5,18.2-7.5
				c0.4,0,0.9,0,1.3,0c0.3,7.2-2.3,14.3-7.5,19.5C109.1,232.9,102.6,235.6,95.8,235.6z M123.6,95.6c3.9-6.3,10.2-10.4,17.3-11.7
				c2,6.9,1,14.5-2.9,20.7c-3.9,6.3-10.2,10.4-17.3,11.7C118.7,109.4,119.7,101.8,123.6,95.6z M128.5,135.3c1.9-0.4,3.9-0.7,5.8-0.7
				c5.3,0,10.4,1.6,14.7,4.6c-3.5,6.3-9.5,10.9-16.7,12.5c-1.9,0.4-3.9,0.7-5.8,0.7c0,0,0,0,0,0c-5.3,0-10.4-1.6-14.7-4.6
				C115.4,141.6,121.4,137,128.5,135.3z M109.6,173.8c3.8-2.1,8.1-3.2,12.4-3.2c2.8,0,5.7,0.5,8.3,1.4c-1.6,7-6.2,13.1-12.6,16.6
				c-3.8,2.1-8.1,3.2-12.4,3.2c-2.9,0-5.7-0.5-8.3-1.4C98.7,183.5,103.2,177.4,109.6,173.8z M87.6,100.9c6.3,3.5,10.9,9.5,12.5,16.7
				c1.2,5.1,0.7,10.3-1.1,15.1c-1,1.8-2,3.6-2.9,5.3c-6.2-3.5-10.8-9.5-12.5-16.6C82,114.2,83.5,106.8,87.6,100.9z M60.7,152
				c7,1.6,13.1,6.2,16.6,12.6c2.5,4.5,3.5,9.6,3.1,14.6c-0.5,2-1,4.1-1.4,6.1c-6.9-1.7-13-6.2-16.5-12.5
				C59,166.4,58.4,158.8,60.7,152z M49,208.6c0.4,0,0.9,0,1.3,0c6.9,0,13.3,2.7,18.2,7.5c3.7,3.7,6.1,8.4,7.1,13.5
				c0.1,2,0.2,4,0.3,6c-0.4,0-0.8,0-1.2,0c-6.9,0-13.3-2.7-18.2-7.5C51.3,222.9,48.6,215.7,49,208.6z M65.8,282.8
				c-6.4-3.5-10.9-9.7-12.6-16.6c2.7-0.9,5.5-1.4,8.3-1.4c4.3,0,8.6,1.1,12.4,3.2c4.6,2.5,8.2,6.4,10.5,10.9c0.6,1.9,1.3,3.9,2,5.8
				c-2.7,0.9-5.4,1.4-8.3,1.4C73.9,286,69.6,284.9,65.8,282.8z M95.8,333.5c-1.9,0-3.9-0.2-5.8-0.7c-7.1-1.6-13.2-6.3-16.7-12.5
				c4.3-3,9.4-4.6,14.7-4.6c1.9,0,3.9,0.2,5.8,0.7c5.3,1.2,9.9,4.1,13.4,8c1.1,1.5,2.1,3.1,3.3,4.6
				C106.1,331.9,101,333.5,95.8,333.5z M126.9,374.3c-7.4,0.4-14.4-2.4-19.5-7.4c4.5-5.6,11.3-9.1,18.6-9.5c5.4-0.3,10.6,1.1,15,3.9
				c1.5,1.2,3,2.4,4.5,3.6C141,370.5,134.2,374,126.9,374.3z M155.9,313c5.6,4.5,9.1,11.3,9.4,18.6c0.4,7.3-2.4,14.4-7.5,19.5
				c-5.6-4.5-9.1-11.3-9.4-18.6C148.1,325.2,150.9,318.1,155.9,313z M173.9,404c-6.9,2.4-14.5,1.7-20.8-1.8
				c2.8-6.6,8.3-11.8,15.3-14.2c4.9-1.7,10.3-1.8,15.2-0.5c1.8,0.8,3.7,1.6,5.5,2.3C186.3,396.5,180.8,401.7,173.9,404z
				 M197.3,373.1c-6.6-2.8-11.8-8.4-14.2-15.3c-2.4-6.9-1.7-14.5,1.8-20.8c6.6,2.8,11.8,8.3,14.2,15.3
				C201.5,359.3,200.8,366.8,197.3,373.1z M461.8,208.5c0.4,0,0.9,0,1.3,0c0.3,7.2-2.3,14.3-7.5,19.5c-4.9,4.9-11.3,7.5-18.2,7.5
				c-0.4,0-0.8,0-1.2,0c0.1-2,0.3-4,0.3-6c0.9-5,3.4-9.7,7.1-13.5C448.4,211.2,454.9,208.5,461.8,208.5z M434.7,164.6
				c3.5-6.4,9.7-10.9,16.6-12.6c2.3,6.8,1.7,14.4-1.8,20.8c-3.5,6.4-9.6,10.9-16.5,12.5c-0.4-2-0.9-4.1-1.4-6.1
				C431.1,174.2,432.2,169.1,434.7,164.6z M411.9,117.6c1.6-7.1,6.3-13.2,12.5-16.7c4.1,5.9,5.6,13.3,4,20.5
				c-1.6,7.1-6.2,13.1-12.4,16.6c-0.9-1.8-1.9-3.6-2.9-5.3C411.2,127.9,410.7,122.7,411.9,117.6z M398.1,228
				c-5.2-5.2-7.8-12.3-7.5-19.5c0.4,0,0.9,0,1.3,0c6.9,0,13.3,2.7,18.2,7.5c5.2,5.2,7.8,12.3,7.5,19.5c-0.4,0-0.9,0-1.3,0
				C409.4,235.6,402.9,232.9,398.1,228z M407.6,279.5c-7-1.6-13.1-6.2-16.6-12.6c-3.5-6.4-4.1-14-1.8-20.8c7,1.6,13.1,6.2,16.6,12.6
				C409.3,265.1,409.9,272.7,407.6,279.5z M415,190.5c-2.7,0.9-5.5,1.4-8.3,1.4c-4.3,0-8.6-1.1-12.4-3.2
				c-6.4-3.5-10.9-9.7-12.6-16.6c2.7-0.9,5.5-1.4,8.3-1.4c4.3,0,8.6,1.1,12.4,3.2C408.8,177.4,413.3,183.5,415,190.5z M371.1,83.9
				c7.1,1.3,13.4,5.4,17.3,11.7c3.9,6.2,4.9,13.7,2.9,20.7c-7.1-1.3-13.4-5.4-17.3-11.7C370.2,98.4,369.2,90.9,371.1,83.9z
				 M363,139.3c4.3-3,9.4-4.6,14.7-4.6c1.9,0,3.9,0.2,5.8,0.7c7.1,1.6,13.2,6.3,16.7,12.5c-4.3,3-9.4,4.6-14.7,4.6
				c-1.9,0-3.9-0.2-5.8-0.7C372.5,150.2,366.5,145.6,363,139.3z M377.3,281.9c6.3,3.5,10.9,9.5,12.5,16.7c1.6,7.1,0.1,14.6-4,20.5
				c-6.3-3.5-10.9-9.5-12.5-16.7C371.7,295.3,373.2,287.8,377.3,281.9z M314.7,373.1c-3.5-6.3-4.2-13.9-1.8-20.8
				c2.4-6.9,7.6-12.4,14.2-15.3c3.5,6.3,4.2,13.9,1.8,20.8C326.5,364.8,321.3,370.3,314.7,373.1z M338.1,404
				c-6.9-2.4-12.4-7.6-15.2-14.1c1.9-0.8,3.8-1.5,5.6-2.4c2.2-0.6,4.5-0.9,6.7-0.9c2.8,0,5.7,0.5,8.4,1.4
				c6.9,2.4,12.4,7.6,15.3,14.2C352.6,405.7,345,406.4,338.1,404z M363.5,332.5c-0.4,7.3-3.9,14-9.4,18.6
				c-5.1-5.1-7.8-12.2-7.5-19.5c0.4-7.3,3.9-14,9.4-18.6C361.1,318.1,363.9,325.2,363.5,332.5z M386.5,374.4c-0.5,0-0.9,0-1.4,0
				c-7.3-0.4-14-3.9-18.6-9.4c1.5-1.2,3-2.4,4.5-3.6c4.4-2.7,9.6-4.2,15-3.9c7.3,0.4,14.1,3.9,18.6,9.5
				C399.8,371.7,393.3,374.4,386.5,374.4z M422.1,332.9c-1.9,0.4-3.9,0.7-5.8,0.7h0c-5.3,0-10.4-1.6-14.7-4.6c1.1-1.5,2.2-3,3.3-4.6
				c3.5-3.9,8.1-6.8,13.4-8c1.9-0.4,3.9-0.7,5.8-0.7c5.3,0,10.4,1.6,14.7,4.6C435.2,326.6,429.2,331.2,422.1,332.9z M446.2,282.8
				c-3.8,2.1-8.1,3.2-12.4,3.2c-2.8,0-5.6-0.5-8.3-1.4c0.7-1.9,1.4-3.8,2-5.8c2.3-4.5,5.9-8.4,10.5-10.9c3.8-2.1,8.1-3.2,12.4-3.2
				c2.8,0,5.7,0.5,8.3,1.4C457.1,273.1,452.6,279.3,446.2,282.8z"/>
			<path class="st1" d="M208.8,428.5c-4.8,0-8.8,3.9-8.8,8.8c0,4.8,3.9,8.8,8.8,8.8c4.8,0,8.8-3.9,8.8-8.8
				C217.6,432.4,213.7,428.5,208.8,428.5z"/>
			<path class="st1" d="M303.2,428.5c-4.8,0-8.8,3.9-8.8,8.8c0,4.8,3.9,8.8,8.8,8.8c4.8,0,8.8-3.9,8.8-8.8
				C311.9,432.4,308,428.5,303.2,428.5z"/>
		</g>
	</g>
</g>
<text transform="matrix(1 0 0 1 -0.9031 285.0914)" class="st2 st3 st4">สัญลักษณ์</text>
</svg>
