<?xml version="1.0" encoding="utf-8"?>
<!-- Generator: Adobe Illustrator 22.1.0, SVG Export Plug-In . SVG Version: 6.00 Build 0)  -->
<svg version="1.1" id="Layer_1" xmlns="http://www.w3.org/2000/svg" xmlns:xlink="http://www.w3.org/1999/xlink" x="0px" y="0px"
	 viewBox="0 0 512 512" style="enable-background:new 0 0 512 512;" xml:space="preserve">
<style type="text/css">
	.st0{fill:#F3DB71;}
</style>
<g>
	<g>
		<path class="st0" d="M307.6,168.9c-4.9-4.4-7.6,0.4-51.6,0.4c-42.1,0-44.4-4.5-49.1-0.2c-3.3,3-2.5,2.4-2.5,45.5
			c0,4.1,3.4,7.5,7.5,7.5s7.5-3.4,7.5-7.5v-31.7c24.8,1.9,49.9,1.9,75.7-0.2v146.5c-24.8-2.1-50-2.2-75.7-0.2v-88.9
			c0-4.1-3.4-7.5-7.5-7.5s-7.5,3.4-7.5,7.5c0,105.3-0.9,99.5,2.5,102.6c1.6,1.4,3.6,2.1,5.8,1.9c50.3-4.8,87.1,0.3,90,0.3
			c4.1,0,7.5-3.4,7.5-7.5C310.1,162.1,311.2,172.1,307.6,168.9z"/>
	</g>
</g>
<g>
	<g>
		<path class="st0" d="M393.4,355.6c-3.4-5.9-8.9-10.2-15.5-11.9c-10.4-2.8-21.1-5.3-31.8-7.4V175.5c10.7-2.1,21.4-4.6,31.8-7.4
			c13.6-3.7,21.7-17.7,18-31.3c-3.7-13.6-17.7-21.7-31.3-18c-69.7,18.9-145.4,19.4-217.2,0c-13.6-3.7-27.6,4.4-31.3,18
			c-3.7,13.6,4.4,27.6,18,31.3c11.2,3,22.7,5.7,34.3,7.9v159.8c-11.6,2.2-23.1,4.9-34.3,7.9c-13.6,3.7-21.7,17.7-18,31.3
			c3.7,13.6,17.7,21.7,31.3,18c35.2-9.5,71.8-14.4,108.6-14.4c36.9,0,73.4,4.8,108.6,14.4C386.6,398.9,404.7,375.2,393.4,355.6z
			 M381.5,371.1c-1.7,6.2-7.8,8.8-12.9,7.4c-72.2-19.6-150.6-20.1-225.1,0c-5.6,1.5-11.4-1.8-12.9-7.4c-1.5-5.6,1.8-11.4,7.4-12.9
			c12.7-3.4,25.9-6.4,39.2-8.7c3.6-0.6,6.2-3.7,6.2-7.4V169.8c0-3.6-2.6-6.8-6.2-7.4c-13.3-2.3-26.4-5.3-39.2-8.7
			c-5.6-1.5-8.9-7.3-7.4-12.9c1.5-5.6,7.3-8.9,12.9-7.4c72.4,19.6,150.8,20.1,225,0c5.6-1.5,11.4,1.8,12.9,7.4
			c1.5,5.6-1.8,11.4-7.4,12.9c-12,3.3-24.4,6-36.7,8.3c-3.6,0.6-6.2,3.8-6.2,7.4v173.2c0,3.6,2.6,6.7,6.2,7.4
			c12.3,2.2,24.7,5,36.7,8.3C379.7,359.7,383,365.5,381.5,371.1z"/>
	</g>
</g>
</svg>
