<?xml version="1.0" encoding="utf-8"?>
<!-- Generator: Adobe Illustrator 22.1.0, SVG Export Plug-In . SVG Version: 6.00 Build 0)  -->
<svg version="1.1" id="Layer_1" xmlns="http://www.w3.org/2000/svg" xmlns:xlink="http://www.w3.org/1999/xlink" x="0px" y="0px"
	 viewBox="0 0 512 512" style="enable-background:new 0 0 512 512;" xml:space="preserve">
<style type="text/css">
	.st0{fill:#F3DB71;}
</style>
<g>
	<g>
		<path class="st0" d="M395.5,291.4H115.1c-14.5,0-26.3,11.8-26.3,26.3s11.8,26.3,26.3,26.3h58.7c4.1,0,7.5-3.4,7.5-7.5
			c0-4.1-3.4-7.5-7.5-7.5h-58.7c-6.2,0-11.3-5.1-11.3-11.3c0-6.2,5.1-11.3,11.3-11.3h280.4c6.2,0,11.3,5.1,11.3,11.3
			c0,6.2-5.1,11.3-11.3,11.3H200.8c-4.1,0-7.5,3.4-7.5,7.5c0,4.1,3.4,7.5,7.5,7.5h194.6c14.5,0,26.3-11.8,26.3-26.3
			S409.9,291.4,395.5,291.4z"/>
	</g>
</g>
<g>
	<g>
		<path class="st0" d="M395.5,218.4h-26.7c-2.5-26.9-14.4-51.9-34-71c-69.2-67.3-184.3-23.2-193,71h-26.7
			c-14.5,0-26.3,11.8-26.3,26.3c0,14.5,11.8,26.3,26.3,26.3c58.2,0,54.9,0.1,57.7-0.3c7.2-0.8,16.2-6,20.3-15.5
			c4.3-9.9,0.8-15.2,0.8-26.1c0-33.9,27.6-61.4,61.4-61.4c38,0,67.3,34.4,60.5,72.4c-3.1,17,10.8,31.7,26.6,30.9
			c0.6,0,52.5,0,53.1,0c14.5,0,26.3-11.8,26.3-26.3S409.9,218.4,395.5,218.4z M395.5,256c-58.9,0-54.7,0-55.9-0.2
			c-6.1-1.1-10.2-7-9.1-13.1c8.5-47.2-27.9-90.1-75.2-90.1c-43.7,0-83,37.6-75.2,90.5c0.7,4.8-1.7,9.6-6.5,11.9
			c-2.9,1.4-0.7,1-58.5,1c-6.2,0-11.3-5.1-11.3-11.3c0-6.2,5.1-11.3,11.3-11.3h33.7c4.1,0,7.4-3.2,7.5-7.3c1.5-53,45.9-96.1,99-96.1
			s97.4,43.1,99,96.1c0.1,4.1,3.4,7.3,7.5,7.3h33.7c6.2,0,11.3,5.1,11.3,11.3C406.7,250.9,401.7,256,395.5,256z"/>
	</g>
</g>
</svg>
