<?xml version="1.0" encoding="utf-8"?>
<!-- Generator: Adobe Illustrator 22.1.0, SVG Export Plug-In . SVG Version: 6.00 Build 0)  -->
<svg version="1.1" id="Layer_1" xmlns="http://www.w3.org/2000/svg" xmlns:xlink="http://www.w3.org/1999/xlink" x="0px" y="0px"
	 viewBox="0 0 512 512" style="enable-background:new 0 0 512 512;" xml:space="preserve">
<style type="text/css">
	.st0{fill:#F3DB71;}
</style>
<g>
	<g>
		<path class="st0" d="M339.8,173.3c-11.3-0.6-25.6,7.5-31.5,20.5c-8.4,18.3,1.4,32.3,4.9,38.4c0,0,20.8,36.2,20.8,36.2
			c2.9,5,10.1,5,13,0l24.2-42.1C384.5,203.1,368.2,173.4,339.8,173.3z M358.1,218.8l-17.7,30.8c-3.1-5.4-15.8-27.4-17.7-30.8
			c-7.8-13.6,2.2-30.6,17.8-30.6C355.7,188.2,366,205.2,358.1,218.8z"/>
	</g>
</g>
<g>
	<g>
		<path class="st0" d="M369.2,299.7c3.4-5.9,28.5-49.6,32.2-56c26.6-46.3-6-105.3-61.7-105.5c-11.6,0.1-23.5,3.1-34.2,9.3
			c-19.6-12-44.7-11.4-63.8,2c-20.1-14.1-46.8-14.1-66.9,0c-38.6-27-91.8,0.8-91.8,47.9c0,13.8,11.2,25,25,25s25-11.2,25-25
			c0-4.7,3.8-8.4,8.4-8.4s8.4,3.8,8.4,8.4v127.4c0,13.8,11.2,25,25,25s25-11.2,25-25v-37.5c0-4.1-3.4-7.5-7.5-7.5s-7.5,3.4-7.5,7.5
			v37.5c0,5.5-4.5,10-10,10s-10-4.5-10-10V197.5c0-12.9-10.5-23.4-23.4-23.4s-23.4,10.5-23.4,23.4c0,5.5-4.5,10-10,10s-10-4.5-10-10
			c0-37.2,43.9-57.2,71.9-32.7c2.8,2.5,7,2.5,9.9,0c16.4-14.3,40.7-14.3,57,0c2.8,2.5,7,2.5,9.9,0c15.3-13.3,37.9-14.4,54.3-2.2
			c2.6,1.9,6,2,8.7,0.2c8.7-5.9,19-9.1,29.6-9.4c44.5-0.4,70.3,46.5,49.3,83c-4.8,8.4-29.8,51.8-34.4,59.7c-1.3,2.3-1.3,5.2,0,7.5
			l33,57.4c3.8,6.6-1,15-8.6,15c-3.6,0-6.9-1.9-8.7-5L346.9,331c-2.9-5-10.1-5-13,0L311,370.8c-2.7,4.7-8.8,6.5-13.6,3.7
			c-4.8-2.7-6.4-8.9-3.7-13.6l33-57.4c1.3-2.3,1.3-5.2,0-7.5l-34.4-59.7c-8.7-15.1-9.7-33.7-2.8-49.8c1.5-3.6,0.1-7.7-3.3-9.6
			c-15.7-8.7-34.7,2.8-34.7,20.5v127.4c0,5.5-4.5,10-10,10s-10-4.5-10-10V197.5c0-12.9-10.5-23.4-23.4-23.4s-23.4,10.5-23.4,23.4
			v64.9c0,4.1,3.4,7.5,7.5,7.5s7.5-3.4,7.5-7.5v-64.9c0-4.7,3.8-8.4,8.4-8.4s8.4,3.8,8.4,8.4v127.4c0,13.8,11.2,25,25,25
			s25-11.2,25-25V197.5c0-3.8,2.6-7.1,6.1-8.1c-5.2,18.1-2.8,37.9,6.7,54.4l32.2,56l-30.9,53.6c-6.9,11.9-2.8,27.2,9.2,34.1
			c12.1,6.9,27.3,2.6,34.1-9.2l16.4-28.5l16.4,28.5c4.4,7.7,12.8,12.5,21.7,12.5c19.1,0,31.3-20.7,21.6-37.5L369.2,299.7z"/>
	</g>
</g>
</svg>
