<?xml version="1.0" encoding="utf-8"?>
<!-- Generator: Adobe Illustrator 22.1.0, SVG Export Plug-In . SVG Version: 6.00 Build 0)  -->
<svg version="1.1" id="Layer_1" xmlns="http://www.w3.org/2000/svg" xmlns:xlink="http://www.w3.org/1999/xlink" x="0px" y="0px"
	 viewBox="0 0 512 512" style="enable-background:new 0 0 512 512;" xml:space="preserve">
<style type="text/css">
	.st0{fill:#F3DB71;}
</style>
<g>
	<g>
		<path class="st0" d="M352.4,121.2H226.2c-14.2,0-25.7,11.5-25.7,25.7c0,14.2,11.5,25.7,25.7,25.7h72.5l-69.5,69.5l-16.8-16.8
			c-16-16-43.8-4.8-43.8,18.1c0,6.9,2.7,13.3,7.5,18.1l16.8,16.8l-68.3,68.3c-16.1,16.1-4.6,43.8,18.1,43.8c6.9,0,13.3-2.7,18.1-7.5
			l68.3-68.3l17.4,17.4c4.8,4.8,11.3,7.5,18.1,7.5c22.8,0,34.3-27.7,18.1-43.8l-17.4-17.4l24.4-24.4c2.9-2.9,2.9-7.7,0-10.6
			c-2.9-2.9-7.7-2.9-10.6,0c-32.2,32.2-31.9,30.8-31.9,35c0,4.1,0.4,3.5,24.9,28c4.2,4.2,4.2,10.9,0,15.1c-4.2,4.2-10.9,4.2-15.1,0
			c-24.3-24.3-23.8-24.9-28-24.9c-4.3,0,1.2-4.3-78.9,75.8c-4.2,4.2-10.9,4.2-15.1,0c-4.2-4.2-4.2-10.9,0-15.1l73.6-73.6
			c2.9-2.9,2.9-7.7,0-10.6l-22.1-22.1c-4.2-4.2-4.2-10.9,0-15.1c4.2-4.2,10.9-4.2,15.1,0l22.1,22.1c2.9,2.9,7.7,2.9,10.6,0
			l87.6-87.6c4.7-4.7,1.4-12.8-5.3-12.8h-90.6c-5.9,0-10.7-4.8-10.7-10.7s4.8-10.7,10.7-10.7h126.3c11.9,0,21.5,9.7,21.5,21.5V284
			c0,5.9-4.8,10.7-10.7,10.7c-5.9,0-10.7-4.8-10.7-10.7v-95.9c0-6.7-8.1-10-12.8-5.3l-42.6,42.6c-2.9,2.9-2.9,7.7,0,10.6
			c2.9,2.9,7.7,2.9,10.6,0l29.8-29.8V284c0,14.2,11.5,25.7,25.7,25.7c14.2,0,25.7-11.5,25.7-25.7V157.7
			C388.9,137.6,372.6,121.2,352.4,121.2z"/>
	</g>
</g>
</svg>
