<?xml version="1.0" encoding="utf-8"?>
<!-- Generator: Adobe Illustrator 22.1.0, SVG Export Plug-In . SVG Version: 6.00 Build 0)  -->
<svg version="1.1" id="Layer_1" xmlns="http://www.w3.org/2000/svg" xmlns:xlink="http://www.w3.org/1999/xlink" x="0px" y="0px"
	 viewBox="0 0 512 512" style="enable-background:new 0 0 512 512;" xml:space="preserve">
<style type="text/css">
	.st0{fill:#F3DB71;}
</style>
<g>
	<g>
		<path class="st0" d="M327.9,141c-0.3,0-0.5,0-0.8-0.1c-26.4-2-47,27.4-33.6,52.5l7.7,15c1.3,2.5,3.9,4.1,6.7,4.1h20.1
			c19.7,0,35.8-16.1,35.8-35.8S347.6,141,327.9,141z M327.9,197.6h-15.5c-6.1-11.8-8.1-14.5-8.1-20.8c0-11.5,9.3-20.8,20.8-20.8
			c0.5,0,1,0,1.4-0.1c0.4,0,0.9,0.1,1.4,0.1c11.5,0,20.8,9.3,20.8,20.8C348.7,188.3,339.3,197.6,327.9,197.6z"/>
	</g>
</g>
<g>
	<g>
		<path class="st0" d="M373.1,315.9l-35.1-68.5c34.6-4.9,61.3-34.7,61.3-70.6c0-43-37.8-73.6-72.7-71.3
			c-43.3-2.8-84.7,42.4-69.6,92.1c-25.2,0-29.7-1.3-38.8,5.4c-7.7,6.1-5.7,4.4-38.6,96.9L149,214.4c-3.6-10.1-13.1-16.8-23.8-16.8
			h-23.7c-13.9,0-25.3,11.3-25.3,25.3c0,13.9,11.3,25.3,25.3,25.3h5.8l48.3,135.7c7.9,22.3,39.7,22.4,47.6,0l32.5-91.4
			c1.4-3.9-0.7-8.2-4.6-9.6c-3.9-1.4-8.2,0.6-9.6,4.6l-32.5,91.4c-3.2,9.1-16.2,9.1-19.4,0l-50-140.7c-1.1-3-3.9-5-7.1-5h-11.1
			c-5.7,0-10.3-4.6-10.3-10.3s4.6-10.3,10.3-10.3h23.7c4.3,0,8.2,2.7,9.7,6.8l37.5,105.4c2.4,6.6,11.8,6.6,14.1,0
			c40.2-113.1,37.6-106.4,39.1-108.4c1.2-1.5,2.8-2.7,4.7-3.3c2.3-0.8,0.8-0.6,37.4-0.6c2.6,0,5-1.3,6.4-3.5
			c4.4-7-5.5-10.8-5.5-32.2c0-31.1,25.3-56.3,56.3-56.3c0.9,0,1,0.1,2,0c0.3,0,0.6,0,0.8,0c31.1,0,56.3,25.3,56.3,56.3
			c0,29.4-23,56.3-58.2,56.3c-5.6,0-9.2,5.9-6.7,10.9c41.8,81.5,41.5,80.8,41.5,80.8c15.7,37.1-11.7,78.2-51.9,78.2
			c-31,0-56.3-25.3-56.3-56.3c0-5.7,4.6-10.3,10.3-10.3s10.3,4.6,10.3,10.3c0,19.7,16,35.7,35.7,35.7c19.7,0,35.7-16,35.7-35.7
			c0-5.7-1.5-11.2-2.6-13.3l-49.4-96.2c-1.3-2.5-3.9-4.1-6.7-4.1h-39.8c-3.2,0-6,2-7.1,5l-9.4,26.5c-1.4,3.9,0.7,8.2,4.6,9.6
			c3.9,1.4,8.2-0.7,9.6-4.6l7.6-21.5h29.9c50.7,98.8,48.2,92.4,48.2,98.6c0,11.4-9.3,20.7-20.7,20.7s-20.7-9.3-20.7-20.7
			c0-13.9-11.3-25.3-25.3-25.3c-13.9,0-25.3,11.3-25.3,25.3c0,39.3,32,71.3,71.3,71.3c50.8,0,85.6-52,65.7-99.1
			C374.2,318,373.7,317,373.1,315.9z"/>
	</g>
</g>
</svg>
