<?xml version="1.0" encoding="utf-8"?>
<!-- Generator: Adobe Illustrator 22.1.0, SVG Export Plug-In . SVG Version: 6.00 Build 0)  -->
<svg version="1.1" id="Layer_1" xmlns="http://www.w3.org/2000/svg" xmlns:xlink="http://www.w3.org/1999/xlink" x="0px" y="0px"
	 viewBox="0 0 512 512" style="enable-background:new 0 0 512 512;" xml:space="preserve">
<style type="text/css">
	.st0{fill:#F3DB71;}
</style>
<g>
	<g>
		<path class="st0" d="M383,316.2c-6.9,0.6-13.2,3.8-17.6,9.1c-24.6,29.3-72,7.7-66.6-29.8c0.9-6.5,3.7-12.8,11.7-33.6
			c1.5-3.9-0.4-8.2-4.3-9.7c-3.9-1.5-8.2,0.4-9.7,4.3c-8.3,21.4-11.3,28.3-12.5,36.8c-2,14,1.5,27.9,10,39.2
			c20.3,27.3,60.8,28.7,82.9,2.4c3.9-4.6,10.8-5.2,15.4-1.3c4.6,3.9,5.2,10.8,1.3,15.4c-16.5,19.6-41.8,29.7-68,25.9
			c-45.1-6.6-74.4-52-60.6-96.3c2.4-7.6-7.4,18,26.1-68.7c13.8-35.4-12.5-73.5-50.2-73.5c-34.4,0-60.3,32.1-52.5,66.1
			c0.3,1.3-1.8-3.6,31.6,71.4c18.1,40.8-12,86.8-56.4,86.8c-34,0-61.7-27.7-61.7-61.7c0-6,4.9-10.9,10.9-10.9
			c6,0,10.9,4.9,10.9,10.9c0,22,17.9,39.8,39.8,39.8c22,0,39.8-17.9,39.8-39.8c0-11.2-0.5-9.6-34.5-85.8c-0.3-0.7-0.5-1.4-0.7-2.1
			c-0.3-1.4-0.8-1.7-1.2-3.4c-11.2-47.8,25.3-93.1,73.8-93.1c53,0,90,53.6,70.6,103.3l-6.3,16.4c-1.5,3.9,0.4,8.2,4.3,9.7
			c3.9,1.5,8.2-0.4,9.7-4.3l6.3-16.4c23.2-59.5-21-123.7-84.6-123.7c-50,0-90.8,40.7-90.8,90.8c0,7.2,1.1,18.7,3.7,24.8
			c0.8,3-1.4-2.1,32.5,73.8c7.3,16.4-4.8,34.9-22.7,34.9c-13.7,0-24.8-11.1-24.8-24.8c0-14.3-11.6-25.9-25.9-25.9
			c-14.3,0-25.9,11.6-25.9,25.9c0,42.3,34.4,76.7,76.7,76.7c42.3,0,76.7-34.4,76.7-76.7c0-21.1-4.7-26.9-37.4-100.2
			c-5.4-24.5,13.3-47.3,38-47.3c27.2,0,46.2,27.5,36.2,53.1l-25.2,65.3c-19.5,50.6,13.6,111.5,71.6,119.9
			c31.2,4.5,61.7-7.4,81.7-31.1C419.8,341.2,406.1,314.2,383,316.2z"/>
	</g>
</g>
</svg>
