<?xml version="1.0" encoding="utf-8"?>
<!-- Generator: Adobe Illustrator 22.1.0, SVG Export Plug-In . SVG Version: 6.00 Build 0)  -->
<svg version="1.1" id="Layer_1" xmlns="http://www.w3.org/2000/svg" xmlns:xlink="http://www.w3.org/1999/xlink" x="0px" y="0px"
	 viewBox="0 0 512 512" style="enable-background:new 0 0 512 512;" xml:space="preserve">
<style type="text/css">
	.st0{fill:#F3DB71;}
</style>
<g>
	<g>
		<path class="st0" d="M357.5,273.5c-1.3-3.9-5.5-6.1-9.4-4.9c-3.9,1.3-6.1,5.5-4.9,9.4c18.8,59-25.5,119.2-87.3,119.2
			c-50.5,0-91.5-41.1-91.5-91.5c0-30,14.8-58.2,39.7-75.4c4.3-3,4.3-9.4,0-12.3c-24.8-17.2-39.7-45.3-39.7-75.4c0-5.5,4.5-10,10-10
			s10,4.5,10,10c0,39.5,32.1,71.5,71.5,71.5c39.5,0,71.5-32.1,71.5-71.5c0-5.5,4.5-10,10-10s10,4.5,10,10c0,30-14.8,58.2-39.7,75.4
			c-4.3,3-4.3,9.4,0,12.3c9.9,6.8,18.2,15.4,24.8,25.4c2.3,3.5,6.9,4.4,10.4,2.2c3.5-2.3,4.4-6.9,2.2-10.4
			c-5.8-8.8-12.7-16.7-20.7-23.4c24-20.2,38-50,38-81.5c0-13.8-11.2-25-25-25s-25,11.2-25,25c0,31.2-25.4,56.6-56.6,56.6
			c-31.2,0-56.6-25.4-56.6-56.6c0-13.8-11.2-25-25-25s-25,11.2-25,25c0,31.6,14.1,61.4,38.1,81.5c-24,20.2-38.1,50-38.1,81.5
			c0,58.7,47.8,106.5,106.5,106.5C327.8,412.3,379.4,342.2,357.5,273.5z"/>
	</g>
</g>
<g>
	<g>
		<path class="st0" d="M256,234.2c-39.5,0-71.5,32.1-71.5,71.5s32.1,71.5,71.5,71.5c39.5,0,71.5-32.1,71.5-71.5
			S295.5,234.2,256,234.2z M256,362.3c-31.2,0-56.6-25.4-56.6-56.6c0-31.2,25.4-56.6,56.6-56.6c31.2,0,56.6,25.4,56.6,56.6
			C312.6,337,287.2,362.3,256,362.3z"/>
	</g>
</g>
</svg>
