<?xml version="1.0" encoding="utf-8"?>
<!-- Generator: Adobe Illustrator 22.1.0, SVG Export Plug-In . SVG Version: 6.00 Build 0)  -->
<svg version="1.1" id="Layer_1" xmlns="http://www.w3.org/2000/svg" xmlns:xlink="http://www.w3.org/1999/xlink" x="0px" y="0px"
	 viewBox="0 0 512 512" style="enable-background:new 0 0 512 512;" xml:space="preserve">
<style type="text/css">
	.st0{fill:#F3DB71;}
</style>
<g>
	<g>
		<path class="st0" d="M373.9,342.5c-9.9-5.1-18.8-11.7-26.3-19.7c-2.9-3-7.6-3.1-10.6-0.3c-3,2.8-3.1,7.6-0.3,10.6
			c8.7,9.2,19,16.9,30.4,22.7c5,2.6,7,8.8,4.4,13.8c-2.6,5.1-8.8,7-13.8,4.4c-39-20-65.6-57.9-71.1-101.2c-0.5-3.7-3.7-6.6-7.4-6.6
			h-46.2c-3.8,0-7,2.8-7.4,6.6c-5.5,43.4-32,81.2-71.1,101.2c-5.1,2.6-11.2,0.6-13.8-4.5c-2.6-5.1-0.6-11.2,4.5-13.8
			c31.7-16.3,53.4-45.7,59.4-80.7c0.8-4.6-2.8-8.8-7.4-8.8h-16.1c-5.7,0-10.3-4.6-10.3-10.3c0-5.7,4.6-10.3,10.3-10.3H197
			c4.6,0,8.2-4.2,7.4-8.8c-6-35-27.6-64.4-59.4-80.7c-2.4-1.3-4.3-3.4-5.1-6c-1.7-5.4,1.2-11.2,6.6-12.9c2.6-0.8,5.4-0.6,7.8,0.6
			c39,20,65.6,57.9,71.1,101.2c0.5,3.8,3.7,6.6,7.4,6.6h46.2c3.8,0,7-2.8,7.4-6.6c5.5-43.4,32-81.2,71.1-101.2
			c5-2.6,11.3-0.6,13.8,4.4c2.6,5,0.6,11.3-4.4,13.8c-31.7,16.3-53.4,45.7-59.4,80.7c-0.8,4.6,2.8,8.8,7.4,8.8h16.1
			c5.7,0,10.3,4.6,10.3,10.3c0,5.7-4.6,10.3-10.3,10.3h-16.1c-4.6,0-8.2,4.2-7.4,8.8c2.2,13,6.6,25.3,13.2,36.7
			c2.1,3.6,6.6,4.8,10.2,2.8c3.6-2.1,4.8-6.6,2.8-10.2c-4.2-7.3-7.3-15-9.5-23h6.8c13.9,0,25.3-11.3,25.3-25.3s-11.3-25.3-25.3-25.3
			h-6.8c7-26.4,24.7-48.4,49.5-61.2c12.4-6.4,17.3-21.6,10.9-34s-21.6-17.3-34-10.9c-41.5,21.3-70.3,60.6-78.1,106.1h-33.3
			c-7.8-45.5-36.7-84.9-78.1-106.1c-6-3.1-12.9-3.6-19.3-1.6c-21.5,6.9-23.7,36.3-3.8,46.6c24.8,12.7,42.5,34.7,49.5,61.2h-6.8
			c-13.9,0-25.3,11.3-25.3,25.3s11.3,25.3,25.3,25.3h6.8c-7,26.4-24.7,48.4-49.5,61.2c-23.4,12-15,47.8,11.6,47.8c4,0,8-1,11.5-2.8
			c41.5-21.3,70.3-60.6,78.1-106.1h33.3c7.8,45.5,36.7,84.9,78.1,106.1c12.3,6.3,27.6,1.7,34-10.9
			C391.2,364.1,386.3,348.8,373.9,342.5z"/>
	</g>
</g>
</svg>
