<?xml version="1.0" encoding="utf-8"?>
<!-- Generator: Adobe Illustrator 22.1.0, SVG Export Plug-In . SVG Version: 6.00 Build 0)  -->
<svg version="1.1" id="Layer_1" xmlns="http://www.w3.org/2000/svg" xmlns:xlink="http://www.w3.org/1999/xlink" x="0px" y="0px"
	 viewBox="0 0 512 512" style="enable-background:new 0 0 512 512;" xml:space="preserve">
<style type="text/css">
	.st0{fill:#F3DB71;}
</style>
<g>
	<g>
		<path class="st0" d="M256,170c-56.4-57.9-155.6-18-155.6,63.3c0,50,40.7,90.7,90.7,90.7c14.2,0,25.8-11.6,25.8-25.8v-17.8
			c0-25.7-33.4-35.3-47.3-14.4c-10.9-7.1-17.6-19.3-17.6-32.7c0-21.6,17.5-39.1,39.1-39.1s39.1,17.5,39.1,39.1v163.3
			c0,14.2,11.6,25.8,25.8,25.8s25.8-11.6,25.8-25.8v-44.3c0-4.1-3.4-7.5-7.5-7.5c-4.1,0-7.5,3.4-7.5,7.5v44.3
			c0,6-4.9,10.8-10.8,10.8s-10.8-4.9-10.8-10.8V233.3c0-29.8-24.3-54.1-54.1-54.1S137,203.5,137,233.3c0,21.9,13.1,41.5,33.3,49.9
			c4.3,1.8,9.2-0.7,10.2-5.3c1.1-4.9,5.5-8.4,10.6-8.4c6,0,10.8,4.9,10.8,10.8v17.8c0,6-4.9,10.8-10.8,10.8
			c-41.8,0-75.7-34-75.7-75.7s34-75.7,75.7-75.7c23,0,44.6,10.3,59.1,28.4c3,3.7,8.7,3.7,11.7,0c14.5-18,36-28.4,59.1-28.4
			c41.8,0,75.7,34,75.7,75.7c0,41.8-34,75.7-75.7,75.7c-6,0-10.8-4.9-10.8-10.8v-17.8c0-6,4.9-10.8,10.8-10.8c5,0,9.5,3.5,10.6,8.4
			c1,4.5,5.9,7.1,10.2,5.3c20.2-8.4,33.3-28,33.3-49.9c0-29.8-24.3-54.1-54.1-54.1s-54.1,24.3-54.1,54.1v92c0,4.1,3.4,7.5,7.5,7.5
			s7.5-3.4,7.5-7.5v-92c0-21.6,17.5-39.1,39.1-39.1c38.8,0,53.6,50.6,21.5,71.7c-13.9-20.9-47.3-11.2-47.3,14.4v17.8
			c0,14.2,11.6,25.8,25.8,25.8c50,0,90.7-40.7,90.7-90.7C411.7,152.1,312.5,112,256,170z"/>
	</g>
</g>
</svg>
