<?xml version="1.0" encoding="utf-8"?>
<!-- Generator: Adobe Illustrator 22.1.0, SVG Export Plug-In . SVG Version: 6.00 Build 0)  -->
<svg version="1.1" id="Layer_1" xmlns="http://www.w3.org/2000/svg" xmlns:xlink="http://www.w3.org/1999/xlink" x="0px" y="0px"
	 viewBox="0 0 512 512" style="enable-background:new 0 0 512 512;" xml:space="preserve">
<style type="text/css">
	.st0{fill:#F3DB71;}
</style>
<g>
	<g>
		<path class="st0" d="M168.1,233.9c-26.5,0-48.1,21.6-48.1,48.1s21.6,48.1,48.1,48.1c26.5,0,48.1-21.6,48.1-48.1
			C216.1,255.5,194.6,233.9,168.1,233.9z M168.1,315.1c-18.2,0-33.1-14.8-33.1-33.1c0-18.2,14.8-33.1,33.1-33.1
			c18.2,0,33.1,14.8,33.1,33.1C201.1,300.2,186.3,315.1,168.1,315.1z"/>
	</g>
</g>
<g>
	<g>
		<path class="st0" d="M359.1,326.5c-6.6-0.8-13.2,1.1-18.4,5.3c-38.3,30.4-87.6,37.1-130.8,22c25.2-14.6,41.2-41.7,41.2-71.7
			c0-45.8-37.2-83-83-83c-69.4,0-108.3,80.7-64.8,134.9c17,24.4,45,48.1,77.2,62.1c3.8,1.6,8.2-0.1,9.9-3.9c1.6-3.8-0.1-8.2-3.9-9.9
			c-28.8-12.5-53.4-32.9-71-57.1c-0.1-0.1-0.2-0.2-0.3-0.3C79.4,280.5,110.9,214,168.1,214c37.5,0,68,30.5,68,68
			c0,29.7-19,55.7-47.3,64.8c-6.4,2-7.1,10.9-1,13.9c51.5,25.4,114.7,20.6,162.3-17.2c4.4-3.5,10.6-2.7,14,1.6
			c3.4,4.3,2.7,10.6-1.6,14c-45.2,35.9-102.1,45.1-152.8,31.2c-4-1.1-8.1,1.3-9.2,5.3c-1.1,4,1.3,8.1,5.3,9.2
			c55.1,15,116.9,5.1,166.1-33.9C389.2,357,381.1,329,359.1,326.5z"/>
	</g>
</g>
<g>
	<g>
		<path class="st0" d="M343.9,181.6c-26.5,0-48.1,21.6-48.1,48.1c0,26.5,21.6,48.1,48.1,48.1s48.1-21.6,48.1-48.1
			S370.4,181.6,343.9,181.6z M343.9,262.7c-18.2,0-33.1-14.8-33.1-33.1c0-18.2,14.8-33.1,33.1-33.1s33.1,14.8,33.1,33.1
			C377,247.9,362.1,262.7,343.9,262.7z"/>
	</g>
</g>
<g>
	<g>
		<path class="st0" d="M408.7,177.8C408.7,177.8,408.7,177.8,408.7,177.8c-55.9-81.2-180.4-107-268.5-37c-5.2,4.2-8.5,10.1-9.3,16.7
			c-2.5,22.2,23,36.2,40.4,22.4c38.3-30.4,87.6-37.1,130.8-22c-25.2,14.6-41.2,41.7-41.2,71.7c0,45.8,37.2,83,83,83
			C413.5,312.7,452.1,232,408.7,177.8z M343.9,297.7c-37.5,0-68-30.5-68-68c0-29.7,19-55.7,47.3-64.8c6.4-2.1,7.1-10.9,1-13.9
			c-50.5-24.9-113.8-21.3-162.3,17.2c-1.8,1.4-3.9,2.2-6.2,2.2c-9.5,0-13.6-12-6.2-17.8c77.2-61.3,189.3-45.3,246.8,33.8
			c0.1,0.2,0.3,0.4,0.5,0.6C432.6,231.2,401.1,297.7,343.9,297.7z"/>
	</g>
</g>
</svg>
