<?xml version="1.0" encoding="utf-8"?>
<!-- Generator: Adobe Illustrator 22.1.0, SVG Export Plug-In . SVG Version: 6.00 Build 0)  -->
<svg version="1.1" id="Layer_1" xmlns="http://www.w3.org/2000/svg" xmlns:xlink="http://www.w3.org/1999/xlink" x="0px" y="0px"
	 viewBox="0 0 512 512" style="enable-background:new 0 0 512 512;" xml:space="preserve">
<style type="text/css">
	.st0{fill:#F3DB71;}
</style>
<g>
	<g>
		<path class="st0" d="M405.7,137.2c-11-8.9-27.2-7.1-36.1,3.9l-34.9,43.4l-34.3-43.2c-10.2-12.8-29.7-13-40.1-0.1l-34.9,43.4
			l-10.7-13.3c-2.6-3.2-7.3-3.7-10.5-1.1c-3.2,2.6-3.7,7.3-1.1,10.5l16.5,20.6c3,3.7,8.7,3.7,11.7,0l40.8-50.7
			c4.3-5.3,12.4-5.3,16.6,0.1l40.2,50.6c2.7,3.4,6.9,2.8,5.9,2.8c2.3,0,4.4-1,5.8-2.8l40.8-50.7c5.9-7.4,17.9-3.9,18.9,5.5
			c0.3,2.8-0.5,5.6-2.3,7.8c-58.9,73.2-55.2,68.8-56.7,70l0,0c-4.3,3.1-8.9,2.9-12.4,0.6c-2.1-1.3,1.4,2.7-42.7-52.9
			c-3-3.8-8.7-3.7-11.7,0c-41.9,52-40.7,52-44.9,53.8l0,0c-4.3,1.6-7.5,0.8-10.8-1.5c-1.7-1.4,0.1,0.6-41.8-52.3
			c-3-3.8-8.7-3.8-11.7,0l-40.8,50.7c-3.7,4.6-10.4,5.3-15,1.6c-4.6-3.7-5.3-10.4-1.6-15l55-68.3c4.3-5.3,12.4-5.3,16.6,0.1l7.9,10
			c2.6,3.2,7.3,3.8,10.5,1.2c3.2-2.6,3.8-7.3,1.2-10.5l-7.9-10c-10.2-12.9-29.8-12.9-40.1-0.1l-55,68.3c-8.9,11-7.1,27.2,3.9,36.1
			c11,8.9,27.2,7.1,36.1-3.9l34.9-43.4c36.7,46.3,36.8,48.2,45.6,51.4c10,3.7,21.6,0.8,28.7-8l34.9-43.4
			c36.9,46.4,35.6,45.3,39,47.8c12.2,8.8,27.3,5.6,35.4-4.4l55-68.3C418.5,162.3,416.7,146.1,405.7,137.2z"/>
	</g>
</g>
<g>
	<g>
		<path class="st0" d="M415.1,274.7c-2.4-22.6-31.1-31.1-45.5-13.3l-34.9,43.4l-34.3-43.2c-10.2-12.8-29.7-13-40.1-0.1l-34.9,43.4
			l-34.3-43.2c-10.2-12.8-29.7-13-40.1-0.1l-55,68.3c-8.9,11-7.1,27.2,3.9,36.1c11,8.8,27.1,7.2,36.1-3.9l34.9-43.4
			c37.6,47.4,35.6,45.3,39.6,48.2c7.9,5.8,20.1,6.9,30-0.3c4-2.8,4.2-3.8,39.7-47.9c36.6,46.1,35.8,46.6,43,50.2
			c10.2,5.2,23.5,2.8,31.4-6.9l55-68.3C413.9,288.2,415.8,281.5,415.1,274.7z M397.9,284.1c-59,73.3-55.2,68.8-56.7,70l0,0
			c-3.8,2.7-7.7,2.9-11.1,1.4c-3.4-1.7,0.1,2-44.1-53.6c-3-3.8-8.7-3.8-11.7,0c-43.4,54-41.8,53.3-47,54.4c-3.5,0.7-6.1-0.3-8.7-2.1
			c-1.3-1,1.4,2.1-41.8-52.3c-1.4-1.8-3.6-2.8-5.8-2.8c-2.3,0-4.4,1-5.9,2.8l-40.8,50.7c-3.7,4.6-10.4,5.3-15,1.6
			c-4.6-3.7-5.3-10.4-1.6-15l55-68.3c4.3-5.3,12.4-5.3,16.6,0.1l40.2,50.6c3,3.8,8.7,3.8,11.7,0l40.8-50.7
			c4.3-5.3,12.4-5.3,16.6,0.1l40.2,50.6c3,3.8,8.7,3.7,11.7,0l40.8-50.7c6-7.4,17.9-3.8,18.9,5.5
			C400.5,279.2,399.7,281.9,397.9,284.1z"/>
	</g>
</g>
</svg>
