<?xml version="1.0" encoding="utf-8"?>
<!-- Generator: Adobe Illustrator 22.1.0, SVG Export Plug-In . SVG Version: 6.00 Build 0)  -->
<svg version="1.1" id="Layer_1" xmlns="http://www.w3.org/2000/svg" xmlns:xlink="http://www.w3.org/1999/xlink" x="0px" y="0px"
	 viewBox="0 0 512 512" style="enable-background:new 0 0 512 512;" xml:space="preserve">
<style type="text/css">
	.st0{fill:#F3DB71;}
</style>
<g>
	<g>
		<path class="st0" d="M436.8,306.9c-0.2-6.7-3-12.9-7.9-17.4l-32.1-30.1c-15.9-15-42.1-3.6-42.1,18.2v45.6c0,4.9-4,9-9,9
			c-4.9,0-9-4-9-9V199.5c0-47.5-53.8-75.7-92.9-48.1c-20.4-14.4-47.5-14.4-67.9,0c-39-27.5-92.9,0.5-92.9,48.1c0,13.8,11.2,25,25,25
			s25-11.2,25-25c0-4.9,4-9,9-9c4.9,0,9,4,9,9v125.2c0,13.8,11.2,25,25,25s25-11.2,25-25v-60.6c0-4.1-3.4-7.5-7.5-7.5
			s-7.5,3.4-7.5,7.5v60.6c0,5.5-4.5,10-10,10s-10-4.5-10-10V199.5c0-13.2-10.7-23.9-23.9-23.9c-13.2,0-23.9,10.7-23.9,23.9
			c0,5.5-4.5,10-10,10s-10-4.5-10-10c0-24.2,19.7-43.9,43.9-43.9c10.7,0,21,3.9,29,11c2.8,2.5,7.1,2.5,9.9,0
			c16.6-14.6,41.4-14.6,58,0c2.8,2.5,7.1,2.5,9.9,0c8-7.1,18.3-11,29-11c24.2,0,43.9,19.7,43.9,43.9v123.7
			c0,13.2,10.7,23.9,23.9,23.9c13.2,0,23.9-10.7,23.9-23.9v-45.6c0-8.7,10.5-13.3,16.8-7.3l32.1,30.1c1.9,1.8,3.1,4.3,3.1,7
			c0.3,8.9-10.4,13.7-16.8,7.6c-2.3-2.2-5.6-6.1-10.7-3.9c-5.3,2.3-4.5,7.4-4.5,12.1c0,24.2-19.7,43.9-43.9,43.9
			s-43.9-19.7-43.9-43.9V199.5c0-13.2-10.7-23.9-23.9-23.9c-13.2,0-23.9,10.7-23.9,23.9v125.2c0,5.5-4.5,10-10,10s-10-4.5-10-10
			V199.5c0-13.2-10.7-23.9-23.9-23.9c-13.2,0-23.9,10.7-23.9,23.9v38.8c0,4.1,3.4,7.5,7.5,7.5s7.5-3.4,7.5-7.5v-38.8c0-4.9,4-9,9-9
			c4.9,0,9,4,9,9v125.2c0,13.8,11.2,25,25,25s25-11.2,25-25V199.5c0-4.9,4-9,9-9s9,4,9,9v123.7c0,32.5,26.4,58.9,58.9,58.9
			c29.7,0,54.3-22.1,58.3-50.7C420.6,336.8,437.3,324.2,436.8,306.9z"/>
	</g>
</g>
</svg>
