<?xml version="1.0" encoding="utf-8"?>
<!-- Generator: Adobe Illustrator 22.1.0, SVG Export Plug-In . SVG Version: 6.00 Build 0)  -->
<svg version="1.1" id="Layer_1" xmlns="http://www.w3.org/2000/svg" xmlns:xlink="http://www.w3.org/1999/xlink" x="0px" y="0px"
	 viewBox="0 0 500 700" style="enable-background:new 0 0 500 700;" xml:space="preserve">
<style type="text/css">
	.st0{fill:none;}
	.st1{fill:#FDFEFE;}
	.st2{fill:#032230;}
	.st3{fill:#CBA979;}
	.st4{fill:#FFFBEE;}
	.st5{fill:#CAA776;}
	.st6{fill:#C9A674;}
	.st7{fill:#FFFBED;}
	.st8{fill:#CBA878;}
	.st9{fill:#FFFBEC;}
	.st10{fill:#FFFAE8;}
	.st11{fill:#FFFBEB;}
	.st12{fill:#C9A573;}
	.st13{fill:#FFFAEA;}
	.st14{fill:#FFFAE6;}
	.st15{fill:#FFFAE9;}
	.st16{fill:#FFF9E2;}
	.st17{fill:#FFFBEA;}
</style>
<g>
	<path class="st0" d="M146.5,226.6c-0.4,0.7-0.8,1.4-1.2,2.1c-4.6,8.3-6.6,17.6-10.2,26.3c-2,4.8-0.3,7,2.7,8.6
		c0.7,0.4,1.5,0.7,2.4,1.1c6.1-3.5,10.6-9.4,17.4-11.7c0,0,0,0,0,0c-0.4-0.8-0.7-1.7-1.1-2.5C153.3,242.5,149.9,234.6,146.5,226.6z"
		/>
	<path class="st0" d="M314.4,599.6c-10.7-0.2-21.4,0.2-32.1-0.3c-5.2-0.2-6.3,2.7-6.8,6.6c-0.5,5.2,3.5,3.5,6,3.6
		c5.2,0.2,10.3,0.1,15.5,0.1c0,0.1,0,0.2,0,0.3c5.5,0,11.1-0.3,16.6,0.1c5.3,0.4,6.2-3.1,6.8-6.8
		C321.2,597.9,316.8,599.7,314.4,599.6z"/>
	<path class="st0" d="M124.3,298.4c-0.7,0.1-1.3,0.2-2,0.3C123,298.7,123.6,298.6,124.3,298.4z"/>
	<path class="st1" d="M387.7,257c0.4,1,0.2,2-0.3,2.9c0.5-0.5,1.1-1,1.6-1.5C388.6,257.9,388.2,257.4,387.7,257z"/>
	<path class="st1" d="M373.3,240.3c0.2,0.1,0.4,0.1,0.6,0.2c0-0.2,0-0.5,0-0.7C373.7,240,373.5,240.1,373.3,240.3z"/>
	<path class="st1" d="M378.5,245.2c0.1,0.2,0.2,0.5,0.2,0.7c0.3-0.5,0.6-1,0.9-1.5C379.2,244.7,378.9,244.9,378.5,245.2z"/>
	<path class="st1" d="M362.6,232.4c-0.1,0.1-0.3,0.2-0.5,0.4c0.2,0,0.4-0.1,0.6-0.2C362.7,232.6,362.7,232.5,362.6,232.4z"/>
	<path class="st1" d="M327.1,173c0,0.2-0.1,0.4-0.1,0.7c0.3-0.2,0.5-0.4,0.8-0.6C327.5,173,327.3,173,327.1,173z"/>
	<path class="st1" d="M278.3,90.4c0,0.3,0.1,0.6,0.1,0.9c0.2-0.3,0.3-0.6,0.4-0.9C278.6,90.4,278.4,90.4,278.3,90.4z"/>
	<path class="st2" d="M115.4,287.7c-2.9,8.3-1,12.2,7,11.1c0.6-0.1,1.3-0.2,2-0.3c8.4-1.4,16.6-4,24.5-7.2c2.8-3.5,6.9-4.4,10.8-5.2
		c22.9-4.9,37.8-19.1,47.5-39.7c0.9-1.9,2.2-3.7,3.8-6.2c3.6,5.4,6.7,10.3,10.1,14.9c4.1,5.6,7.8,6.7,9.2-2.1
		c3.9,10.9,3.7,20.5-0.4,31.1c-3.2,8.3-1.7,18.3,6,26c-5.4,1.5-7.2-4.3-11.2-2.9c-1.6,4.3-4.8,7.9-4.7,12.8
		c2.9,8.1,4.6,16.8,11.2,22.9c-3.5,3.3-6.1,0.9-8.7,0.2c0,0,0,0,0,0c-9.3,22.4-6.9,45.7-4.9,68.9c0.8,8.8,5.1,18.3,2.9,26.1
		c-4.4,16.5,0.2,32.5,1.7,47.9c3.4,33.3,8.4,66.5,9.6,100.1c14.4-7.4,31.1-6.5,45.9-12.7c7.2-3,15.1-3.4,8.5-15.7
		c-4.3-8.1,1.8-18.4,4.2-30.8c1.8,8.4,1,13.4,0,18.4c-0.8,4.3-1.8,9,1.5,12.8c7.7,9,1,13.6-5.8,17.1c-8.9,4.6-18.8,6.9-28.7,8.6
		c-7.7,1.3-15.2,3.2-22.2,6.9c0,0,0,0,0,0c4,3.1,4.7,6.4,0.5,9.7c-9.2,7.3-17.6,15.5-30.3,17c-7.3,0.9-19,2.1-18.8,10
		c0.1,7.6,11.7,8.4,19.1,10c43.2,9.4,87,8.1,130.7,5.8c17.9-0.9,36.2-2.6,53.2-9.7c3-1.2,7-2.2,7-6.2c0.1-4-3.8-5.1-6.8-6.4
		c-12.8-5.2-26.4-6.9-40-8.3c-3,9.3,10.4,9,9.7,17.9c-8.6-5.2-16.3-1.2-24.1,2.2c-5.2,2.2-6.3,1.9-6.9-5.4c-1-12.5,4-20.9,11.6-29.3
		c4.8,1.3,2.6,7.4,6.4,9.2c0.2,0.1,0.7-0.2,0.9-0.4c0.3-0.2,0.4-0.6,0.6-0.9c-0.2-4.1-2.7-9.3,5.3-8.9c6.3,0.3,7.9-3.3,7.6-9.3
		c-1.4-29.3-5.7-58.2-9.9-87.1c-3-20.4-12.1-40.5-9.5-61.1c4.6-36.8-2.4-73.2-1.6-109.8c0.3-13.1,5.4-22.1,14-28.7
		c10-7.8,19.8-15.5,27.9-25.2c0,0,0,0,0,0c-1.8-4.9-4.1-1.3-5.7-0.1c-5.7,4.1-11.2,8.4-17.9,11.7c9.8-9.2,19.6-18.3,29.4-27.5
		c0.5-0.9,0.7-1.9,0.3-2.9c-0.4-0.5-0.9-0.9-1.3-1.4c-7.6,3.3-13.6,9.1-21.2,13.5c4.1-7.1,8.3-14.2,13.5-23.2
		c-0.1-0.3-0.1-0.5-0.2-0.7c-3.4,2.4-5.6,3.9-7.8,5.4c-1.4-3.9,2.9-5.8,3.1-10c-0.2-0.1-0.4-0.2-0.6-0.2
		c-11.6,9.7-13.6-5.3-21.3-7.5c3.9-4.1,6.8,0.8,10.1,0c0.2-0.1,0.4-0.2,0.5-0.4c-1.9-4.6-6-7.1-9.3-10.2c-3.5-3.2-5.7-5.8-0.4-9.3
		c3.5-2.3,2.3-4.5-0.4-7c-7.1-6.4-18.6-5.7-24.1,2.1c-6.4,9-14.7,15.4-24.4,20.3c-2.8-2.8,1.4-4.8,0.1-7.8c-3.3-1.2-5.6,2.4-8.8,2.6
		c-2.5-3,3.9-5.4,1.3-7.3c-2-1.5-5.6-0.7-9-0.9c2.8-5.8,8.9-6.6,13.4-10c-6.9-2-12.4,2.9-19.7,2.7c13.2-10.6,26.4-17.9,43.4-14.5
		c0.3-6.4-6.1-7.7-7.8-12.3c3.4-2.5,6.7-4.9,9.9-7.3c0.1-0.2,0.1-0.4,0.1-0.7c-1.5-0.2-3-0.4-4.6-0.6c0,0,0,0,0,0
		c-7.1,1.9-13.6,5.1-21.3,10.3c2.7-8.6,4.4-15.6,4.4-22.9c-2.2-10.6-1.8-13.1,3.8-24.8c0,0,0,0,0,0c-9.9-1.8-14.8-5.4-9.9-17
		c2.2-5.2-4.8-9.8-9-13.9c1.7-3.2,5.2-2.1,7.8-3c-1.5-2.3-4.2-1.8-6.4-2.5c0,0,0,0,0,0c0,0,0,0,0,0c-4.6,3.2-11.7,2.4-14.7,1.4
		c-7.3-2.5-0.5-5.6,1.3-8.8c-0.1-0.3-0.1-0.6-0.1-0.9c-1.4,0-2.9,0-4.3,0c0,0,0,0,0,0c-1.8,3.5-3.7,7-5.6,10.8
		c-2.7-2.4-5.4-4.8-8-7.1c-13.6,0.2-16.4,12.4-20.1,21c-3.6,8.5-10.7,15.4-11.3,25.7c-0.2,4.5-5.4,8.6,1.8,12
		c0.6,0.3,0.8,3.5,0.2,4.1c-9.4,7.9-8,23.9-22.6,28.3c-9.2,2.8-12.9,12.1-14.4,21.1c-3.5,22.4-14.6,38.6-36.3,46.6c0,0,0,0,0,0
		c0,0,0,0,0,0c-6.8,2.4-11.4,8.2-17.4,11.7c-2.1,4.9-7.1,6-11,8.2c-6.6,3.7-11.1,2-11.5-6.4v0c-2.2-2.3-4.5-2.7-6.7,0
		C116.6,272.8,118,280,115.4,287.7z M227.8,615c7.9-4.2,11.3-13.3,22.2-8.6C244.3,613.3,238.5,617.5,227.8,615z M226.9,377.5
		c3.6,12.1,7.2,24.2,10.8,36.4C227.9,403.8,225.3,391.4,226.9,377.5z M241.7,455.2c1.2,11.9-1.5,23.3-4.9,34.8
		C235,478,235.6,466.1,241.7,455.2z M268.1,156c5,1.1,2.2,4.8,4.2,6.5c3.1,0.2,1.8-4.5,4.9-4.6c2.1,1.7,2.2,4.5,2.1,6.8
		c-0.3,5.4-4.4,7.4-9,8.1c-8,1.1-16-1.3-26.1,1.6C252.2,164.1,268.7,172.2,268.1,156z M290.2,323.9c-7.1,2.2-14.4,3.6-21.6,5
		c-5.5,1.1-11,1.5-14.8-5.6c15.7-2.6,31.1-3.1,46.1-6.9c5.5-1.4,5.1,3.6,5.5,7.1c0.9,0.8,1.7,1.8,2.3,3.2c-1.7,0.2-2.1-1.3-2.3-3.2
		C301.7,320.6,296.1,322,290.2,323.9z M303.4,341.8c-11.6,16.5-16.4,17.5-31.2,7.9C282.1,347.8,292,347,303.4,341.8z M268.8,281.6
		c2.1,5.3,2.6,12.3-0.6,17.3c-2.1,3.4-5.1,0-5.8-3.2c-1.1-4.7-0.2-10.1-7.4-15.2C261.2,281.1,266.2,275.3,268.8,281.6z M262.7,258.4
		c5.6-0.5,5.7,3.7,6.1,7.2c0.4,2.9,0.5,5.8-4.2,5.8c-6.2,0.1-8-5.2-9-8.7C254.5,258.4,260.6,260.3,262.7,258.4z M269.1,246.1
		c0.3,3.1,0.5,6.7-3.5,6.7c-2,0-10.7,6.7-6.6-4.6c0.9-2.4-5.9,1.1-8.1-2.3c1.6-4.6,5.2-5.4,9.5-5.7
		C265.2,239.8,268.5,240.7,269.1,246.1z M293.1,330.7c-19.9,16.8-42.8,13.7-53.7-7.3C255.2,339.4,274,333.4,293.1,330.7z
		 M271.4,359.7c-11.9,1-21.1-3.3-29.3-15.1C253.5,350.1,261.6,356.6,271.4,359.7z M275.1,426.3c-21.1-12.6-29.7-33.3-35.8-55.4
		C251.3,389.3,263.2,407.8,275.1,426.3z M255.2,465.2c-2.3,18.7-6.4,36.9-13.9,54.2C243.2,500.7,247.3,482.4,255.2,465.2z
		 M245.6,539.7c1.6-16.1,6.9-31.1,14-45.6C257.7,510.1,253,525.3,245.6,539.7z M244.6,403.7c5.8,8.8,11.5,17.6,17.3,26.3
		C250.7,425.1,245.6,415.8,244.6,403.7z M261.2,422.8c12.5,7.9,21.9,15.3,35.6,18.1c-6.4-7.7-11.5-13.8-16.9-20.3
		c1.4-0.5,2.2-1,2.5-0.8c5.5,3.5,5.4,2.8,11.2,1.2c4.1-1.2,8.8-0.2,16.1-0.2c-11.4-5-21-7.1-28.9-13.1c-8.1-6.2-14.4-13.5-18.1-24.1
		c1.5,0.7,2.1,0.9,2.4,1.2c12.6,16.4,13.3,16.8,42.8,20.7c-16.1-10.3-18-21-5.8-32.9c-5-1.2-7.3,1.6-9.8,3.4
		c-11.4,8.3-11.3,8.4-18.6-4.9c16-6.5,34.7-6.6,48.3-21.5c3.1,16.4,2.9,31.3,1,47.3c6.1-3.7,4.7-11,10.1-16
		c1.6,29.5,1.5,57.3-6.1,84.7c-1.1,4.1-2.2,7.5-8.3,4.6C296.7,459.8,277,446.5,261.2,422.8z M328.1,488.1
		c5.8,16.7,5.8,34.3,7.2,51.8C321.4,524.3,331.5,505.2,328.1,488.1z M300.2,552.6c-5.8-0.2-3.8-4.8-3.4-7.4
		c1.8-11.6,0.7-23.7,5.5-37.4c1.2,14.1,2.2,25.7,3.2,37.3C305.9,549.3,305.5,552.8,300.2,552.6z M320.4,603.2
		c-0.5,3.7-1.4,7.2-6.8,6.8c-5.5-0.4-11.1-0.1-16.6-0.1c0-0.1,0-0.2,0-0.3c-5.2,0-10.3,0.1-15.5-0.1c-2.5-0.1-6.6,1.6-6-3.6
		c0.4-3.9,1.6-6.8,6.8-6.6c10.7,0.4,21.4,0,32.1,0.3C316.8,599.7,321.2,597.9,320.4,603.2z M322.3,575.8c-8-2.2-10.4-7.2-3.3-13.5
		c6.5-5.9,6-9.3-3.1-10c-4.3-0.3-5.8-2.2-5.7-6.3c0.1-20.2,0-40.5,0.9-60.9c5.1,8.2,6.7,17.5,9,26.5c3.3,12.9,6.7,25.9,7.9,39.2
		c0.3,3.7,1.4,8.3-1.2,10.8c-11.4,10.5-0.5,10.4,5.7,12.6c7.8,2.7,16.6,2.9,25.4,9.8C344.4,580.9,333.2,578.8,322.3,575.8z
		 M353.4,576c-8.2-5.6-12.9-11.8-12.3-22.6c1.2-23.3-1.5-46.6-3.5-70.1C345.6,495.1,355.3,551.6,353.4,576z M334.1,319.1
		c-2.6,2.7-4.3,0.7-6.4-1.2c-4.4-3.9-9.1-7.5-15.1-12.3c8.3-1.6,15.1-0.4,21.8,1.1c2.3,0.5,6.1-0.8,6.4,2.8
		C341.1,313.9,336.9,316.2,334.1,319.1z M325.8,266.4c1-2.1,2.1-4.2,3.1-6.4c0,0,0,0,0,0c1.3-7.2,2.6-14.5,3.9-21.7
		c1.2-6.4,3.4-5.6,6.1-0.8c1.2,0.9,2.4,1.7,3.6,2.6c9.7,7.2,19,12.9,9.8,28.5c-6.1,10.4-9.3,21.6-22.6,24.7c0,0,0,0,0,0c0,0,0,0,0,0
		c-7.9-0.3-4.7-7.3-5.7-10.9c-2-7-4.1-8.2-9.1-2.3c-2.2-5.5,0.9-10,1-15.5c-2.8,2.3-4.9,4.1-9.4,7.8c4.1-9.2,7-15.8,10.2-22.9
		C322.6,254.4,323.6,260.7,325.8,266.4z M312.6,236.8c-10.4,9-10.3,20.3-16.1,28.9c-1.3,2-1.2,6.2-5.7,4.5c-4.6-1.7-2.5-3.8-1.1-6.5
		c4-7.4-7-1.5-5.9-6.5c2.5-2.6,6.8-2.9,9-7.2c-2.8-0.5-5.3-1.1-8-1.6c0.2-3.2,4.5-1.8,5.1-4.9c-2.5-1.3-5.2-2.6-7.9-4
		C291.4,240.6,300.4,239.5,312.6,236.8z M283.7,288.3c7-3-4-4.7-0.8-7.9c9.2-0.2,10.8,5.2,8.7,12.9c-0.6,2.2-0.9,5.9-4.2,5.2
		c-2.1-0.5-4.1-2.8-5.7-4.8C279.7,291.1,280.3,289.7,283.7,288.3z M277.8,174.8c4.9-3.2,8.5-5.6,12.2-8
		C288.7,172.9,285.1,175.5,277.8,174.8z M281.9,144.6c8.5,2.4,8.5,2.4,4.2,11C284.1,151.8,284.9,147.3,281.9,144.6z M261.4,110.2
		c7-6.3,24.8-4.1,28.9,4c1.6,3.1,5.9,9.1-3.7,8c-4-0.5-8.3-1.1-11,3.2c-0.9,1.5-0.3,2.9,0.9,3.9c4,3.3,8.1,3.1,12.3,0.4
		c0.6-0.4,1.4-0.4,3.7-1.2c-1.1,8,0.1,12.8-11.5,10.7c-9.7-1.7-9.9-4.9-10.1-11.9c-0.1-4-3.2-5.5-6.9-6c-2.4-0.3-5.6,0.4-6-3.4
		C257.7,114.9,259.1,112.3,261.4,110.2z M259,132.4c2,0.1,4.5-0.8,5.6,1.8c0,2.6-1.6,3.8-3.4,4.1c-2.4,0.4-4.4-0.8-4.9-3.3
		C255.9,133.2,257.3,132.3,259,132.4z M268.1,142.4c-4.1,12.4-14.5,10.4-23.9,11C251.8,149,260.4,146.6,268.1,142.4z M256.5,161.9
		c-7.4,1.7-12.5,7-19.6,2C243.2,165.4,248.1,156.7,256.5,161.9z M246.8,213.5c0.1-0.6,0.3-1.2,0.4-1.7c-3.4-1.4-6.8-2.8-13.3-5.4
		c7.7,0,12.1-0.7,16.1,0.2c5.1,1.1,12.6-5.8,14.5,0.4c2,6.6,5.4,15.9-0.7,22c-5.8,5.7-14,8.4-22.5,4.5c-3.9-1.8-8.1-3.4-10.2-7.9
		c4.2-1.7,8.8,1.2,12.8-2c-4.8-4.1-12.1-3.6-16.5-9.9C234.3,213.5,240.5,213.5,246.8,213.5z M243.4,239.7
		c-19.9,0.3-28.4-6.6-31.4-23.8C219.4,227.4,230.1,232.9,243.4,239.7z M195.7,232.9c-1.9,10.5-7.2,16.8-16.6,23.6
		C183,245.8,188,239.4,195.7,232.9z M171.4,270.7c0.9-4,4.7-5.2,7.8-7c1.9-1.1,3.8-2,6.7-0.8c-1.5,2.1-2.4,4-3.9,5.4
		c-2.5,2.3-3.8,6.7-8.3,5.6C172.7,273.7,171.2,271.6,171.4,270.7z M132.9,277.6c-0.3-1.7,1-3.7,3.3-3.3c2.2,0.3,2.6,2.6,2.6,4.3
		c0.1,6.1-3.7,9.9-9.5,14.3C130.6,286.6,133.9,282.7,132.9,277.6z"/>
	<path class="st3" d="M170.1,125.6c-8.3,18.9-16.6,37.9-24.9,56.8c1.3,0.7,2,1.3,2.6,1.3c4.3-0.2,9.6-4.1,12.6-0.5
		c3.1,3.6-1.9,8-3.1,12c-3.2,10.6-7.2,21-10.8,31.4c3.4,7.9,6.8,15.9,10.2,23.8c0.4,0.8,0.7,1.7,1.1,2.5c0,0,0,0,0,0
		c21.7-8.1,32.7-24.2,36.3-46.6c1.4-9,5.2-18.3,14.4-21.1c14.6-4.5,13.3-20.4,22.6-28.3c0.7-0.6,0.4-3.8-0.2-4.1
		c-7.2-3.3-2.1-7.5-1.8-12c0.5-10.3,7.7-17.2,11.3-25.7c3.7-8.6,6.4-20.8,20.1-21c-0.6-0.5-1.1-0.9-1.7-1.4c0,0,0,0,0,0
		c-1.7-1.7-0.6-2.4,1.1-2.4c4.4,0,8.8,0.1,13.2,0.1c0.3,0,0.7,0,1,0c0,0,0,0,0,0c0,0,0,0,0,0c1.4,0,2.9,0,4.3,0c0.2,0,0.3,0,0.5,0
		c5.1-0.4,9.9,0,14.3,3.1c2.5,1.8,2,2.8,0.9,3.6c-0.7,0.5-1.6,1-2.1,1.7c0,0,0,0,0,0c2.2,0.7,4.8,0.2,6.4,2.5
		c0.1,0.1,0.2,0.2,0.3,0.4c8.7,9.1,6.9,21.6,10.5,32.4c0.1,0.4,0.2,0.8,0.4,1.2c0,0,0,0,0,0c0,0,0,0,0,0
		c-5.6,11.7-5.9,14.1-3.8,24.8c0.8,0.2,1.5,0.5,2.3,0.8c5.3,2.1,9.8,5.4,13.3,9.9c0.5,0.6,0.9,1.2,1.3,1.8l0,0
		c1.5,0.2,3.1,0.4,4.6,0.6c0.2,0,0.4,0.1,0.7,0.1c16.3,1.6,29.7,6.9,33.1,25.3c0.8,4.1,4,5.9,6.9,8.2c8.6,7,17.4,13.9,22.2,24.3
		c0,0,0,0,0,0c3.1-2,3.5-5.3,4.6-8.5c6.2-18.8,6.6-38.2,3.9-57.3c-8.5-59.6-60.5-106.1-120.5-108.7c-64.2-2.8-118.5,37.3-133.3,98.4
		c8.1-10,16.2-19.9,24.3-29.9C169.3,125.2,169.7,125.4,170.1,125.6z"/>
	<path class="st4" d="M130.8,460.9c-3,1.4-6.5,3.6-9.4,1.3c-2.9-2.3-1.6-6.2-0.8-9.4c6.9-28.7,13.7-57.5,21-86.2
		c4.9-19.5,10.4-38.9,16.2-60.2c-9.7,3.5-17.4,6.8-25.5,9.1c-5.1,1.5-12.3,7.6-14.9,3.2c-3.2-5.4,1-13,5.5-18.6
		c0.5-0.6,1-1.1,1.5-1.6c-0.7,0.1-1.3,0.3-2,0.3c-8,1.1-9.9-2.7-7-11.1c2.7-7.7,1.2-14.9-4.2-21.2c-4.1,7.8-6.4,15.5-3.3,24.5
		c1.9,5.6,0.8,11.6-1,17.5c-3.8,12.2-6.8,24.6-7.7,38c9.2-5,17.6-9.8,26.1-14.1c2.7-1.4,5.8-4.8,9-1.6c2.4,2.4,0.3,5.5-0.4,8.4
		c-10.4,43.1-20.7,86.3-30.8,129.5c-1.7,7.2-2.1,14.7-3.3,23.5c5.5-2.5,9.2-4.1,12.8-6c8.1-4.1,10.7-1.2,9.5,7.1
		c-3.5,23.7-7.6,47.4-10.1,71.3c-1.5,14.5-4.5,29-2.4,43.8c11.1-51.2,22.1-102.3,36.2-154.4C139.5,456.8,135.1,458.8,130.8,460.9z"
		/>
	<path class="st4" d="M367.7,206.6c-2.9-2.3-6.1-4.1-6.9-8.2c-3.4-18.4-16.8-23.7-33.1-25.3c-0.3,0.2-0.5,0.4-0.8,0.6
		c-3.3,2.4-6.6,4.8-9.9,7.3c1.7,4.5,8,5.8,7.8,12.3c-17-3.4-30.2,3.9-43.4,14.5c7.4,0.2,12.8-4.7,19.7-2.7
		c-4.5,3.4-10.6,4.2-13.4,10c3.4,0.2,7-0.6,9,0.9c2.6,1.9-3.7,4.3-1.3,7.3c3.2-0.3,5.5-3.8,8.8-2.6c1.3,3-3,5-0.1,7.8
		c9.7-4.9,18-11.3,24.4-20.3c5.5-7.8,17-8.5,24.1-2.1c2.7,2.5,3.9,4.7,0.4,7c-5.3,3.5-3.1,6,0.4,9.3c3.3,3.1,7.4,5.6,9.3,10.2
		c0,0.1,0.1,0.1,0.1,0.2c-0.2,0.1-0.4,0.1-0.6,0.2c-3.4,0.7-6.2-4.1-10.1,0c7.7,2.2,9.7,17.2,21.3,7.5c0.2-0.2,0.4-0.3,0.6-0.5
		c0,0.2,0,0.5,0,0.7c-0.2,4.2-4.6,6.2-3.1,10c2.2-1.5,4.3-3,7.8-5.4c0.4-0.2,0.7-0.5,1.1-0.8c-0.3,0.5-0.6,1-0.9,1.5
		c-5.2,9-9.4,16.1-13.5,23.2c7.6-4.4,13.6-10.2,21.2-13.5c0.4,0.5,0.9,0.9,1.3,1.4c0.4,0.5,0.9,0.9,1.3,1.4c-0.5,0.5-1.1,1-1.6,1.5
		c-9.8,9.2-19.6,18.3-29.4,27.5c6.7-3.3,12.2-7.6,17.9-11.7c1.7-1.2,3.9-4.8,5.7,0.1c0,0,0,0,0,0c18-14.6,19.1-19.1,10-39.8
		c-0.7-1.6-1.1-3.4-1.7-5.2c0,0,0,0,0,0C385.1,220.5,376.3,213.6,367.7,206.6z"/>
	<path class="st4" d="M129.3,272.9c3.9-2.2,9-3.3,11-8.2c-0.9-0.3-1.7-0.7-2.4-1.1c-3.1-1.6-4.7-3.8-2.7-8.6
		c3.6-8.7,5.6-18,10.2-26.3c0.4-0.7,0.8-1.4,1.2-2.1c3.6-10.5,7.6-20.8,10.8-31.4c1.2-4,6.2-8.4,3.1-12c-3-3.6-8.3,0.3-12.6,0.5
		c-0.6,0-1.2-0.6-2.6-1.3c8.3-18.9,16.6-37.9,24.9-56.8c-0.4-0.2-0.8-0.5-1.2-0.7c-8.1,10-16.2,19.9-24.3,29.9
		c-3.1,15.4-15.9,25.3-22,39.1c-1.3,3-5.8,5.4-4,8.5c2.4,4,6.5,0.8,9.9,0.1c9.7-2,11.8-0.1,8.8,8.9c-6.2,18.5-13,36.7-19.5,55.1v0
		C118.2,274.9,122.7,276.6,129.3,272.9z"/>
	<path class="st3" d="M235.8,309.9c-7.7-7.7-9.2-17.6-6-26c4.1-10.6,4.3-20.2,0.4-31.1c-1.4,8.9-5.1,7.8-9.2,2.1
		c-3.4-4.6-6.4-9.5-10.1-14.9c-1.6,2.5-2.9,4.2-3.8,6.2c-9.7,20.6-24.6,34.8-47.5,39.7c-3.9,0.8-8,1.8-10.8,5.2
		c10.8,0.4,21.4-0.5,30.8-6.4c4-2.5,6.8-0.8,9.8,1.7c10.6,8.8,22.7,14.9,35.2,20.4C228.6,305.6,230.3,311.4,235.8,309.9z"/>
	<path class="st4" d="M346.4,607.3c-3.8-1.8-1.7-7.9-6.4-9.2c-7.6,8.3-12.6,16.8-11.6,29.3c0.6,7.3,1.8,7.6,6.9,5.4
		c7.9-3.4,15.5-7.3,24.1-2.2c0.7-8.9-12.7-8.5-9.7-17.9c-0.2-2.3,0.4-4.9-1.8-6.7c-0.2,0.3-0.4,0.7-0.6,0.9
		C347.1,607.1,346.6,607.4,346.4,607.3z"/>
	<path class="st5" d="M286.1,575.2c6.8-3.5,13.5-8.1,5.8-17.1c-3.3-3.8-2.3-8.6-1.5-12.8c1-5.1,1.9-10,0-18.4
		c-2.4,12.4-8.5,22.6-4.2,30.8c6.5,12.3-1.4,12.7-8.5,15.7c-14.8,6.2-31.4,5.3-45.9,12.7c-0.3,2.6,1.3,3.8,3.4,4.7c0,0,0,0,0,0
		c7-3.7,14.5-5.6,22.2-6.9C267.2,582,277.1,579.8,286.1,575.2z"/>
	<path class="st6" d="M231.1,342.7c-6.7-6.1-8.4-14.8-11.2-22.9c-3.5,8.2-2.7,15.9,2.5,23.1c0,0,0,0,0,0
		C225.1,343.6,227.7,346,231.1,342.7z"/>
	<path class="st4" d="M327.1,465.7c7.6-27.4,7.7-55.2,6.1-84.7c-5.4,5.1-4,12.3-10.1,16c1.9-16,2.1-30.9-1-47.3
		c-13.5,14.9-32.2,15-48.3,21.5c7.3,13.3,7.3,13.2,18.6,4.9c2.5-1.8,4.8-4.7,9.8-3.4c-12.3,11.9-10.3,22.7,5.8,32.9
		c-29.5-3.9-30.2-4.3-42.8-20.7c-0.3-0.4-0.9-0.5-2.4-1.2c3.7,10.6,10,17.9,18.1,24.1c7.9,6,17.5,8.2,28.9,13.1
		c-7.3,0-12-0.9-16.1,0.2c-5.8,1.7-5.6,2.3-11.2-1.2c-0.3-0.2-1,0.3-2.5,0.8c5.4,6.4,10.5,12.6,16.9,20.3
		c-13.7-2.8-23.1-10.2-35.6-18.1c15.7,23.7,35.5,36.9,57.6,47.5C324.8,473.2,325.9,469.8,327.1,465.7z"/>
	<path class="st7" d="M326.7,561.5c2.7-2.5,1.6-7,1.2-10.8c-1.2-13.4-4.6-26.3-7.9-39.2c-2.3-9-3.9-18.3-9-26.5
		c-0.8,20.4-0.8,40.7-0.9,60.9c0,4,1.4,6,5.7,6.3c9,0.6,9.6,4.1,3.1,10c-7.1,6.4-4.7,11.3,3.3,13.5c10.9,3,22.1,5.1,35.4,8.1
		c-8.8-6.9-17.6-7.1-25.4-9.8C326.2,572,315.3,572,326.7,561.5z"/>
	<path class="st8" d="M329.7,293.4C329.7,293.4,329.7,293.4,329.7,293.4c13.4-3.1,16.5-14.4,22.6-24.7c9.2-15.6-0.1-21.3-9.8-28.5
		c-1.2-0.9-2.4-1.7-3.6-2.6c-5.8,6.4-2.1,17.1-10,22.5c0,0,0,0,0,0c0,0,0,0,0,0c-1,2.1-2.1,4.2-3.1,6.4
		C327,275.4,330.1,284.2,329.7,293.4z"/>
	<path class="st4" d="M243.9,223.4c-4,3.2-8.6,0.3-12.8,2c2.1,4.5,6.3,6.1,10.2,7.9c8.6,3.9,16.8,1.2,22.5-4.5
		c6.1-6,2.7-15.4,0.7-22c-1.9-6.2-9.3,0.7-14.5-0.4c-4.1-0.9-8.5-0.2-16.1-0.2c6.5,2.7,9.9,4,13.3,5.4c-0.1,0.6-0.3,1.2-0.4,1.7
		c-6.3,0-12.5,0-19.4,0C231.8,219.7,239.1,219.2,243.9,223.4z"/>
	<path class="st4" d="M341,553.4c-0.6,10.8,4.1,17,12.3,22.6c2-24.4-7.7-80.9-15.8-92.7C339.5,506.8,342.3,530,341,553.4z"/>
	<path class="st4" d="M264,121.4c3.7,0.4,6.7,2,6.9,6c0.2,6.9,0.5,10.2,10.1,11.9c11.6,2.1,10.5-2.7,11.5-10.7
		c-2.3,0.7-3.1,0.8-3.7,1.2c-4.2,2.6-8.4,2.9-12.3-0.4c-1.2-1-1.8-2.4-0.9-3.9c2.7-4.3,7-3.7,11-3.2c9.5,1.1,5.3-4.8,3.7-8
		c-4.1-8.1-21.9-10.3-28.9-4c-2.3,2.1-3.7,4.7-3.4,7.9C258.3,121.8,261.5,121.1,264,121.4z"/>
	<path class="st7" d="M284.8,248.4c2.7,0.5,5.3,1.1,8,1.6c-2.2,4.3-6.5,4.6-9,7.2c-1.1,5,9.9-0.9,5.9,6.5c-1.4,2.7-3.5,4.9,1.1,6.5
		c4.5,1.6,4.4-2.6,5.7-4.5c5.7-8.6,5.6-19.9,16.1-28.9c-12.1,2.6-21.2,3.8-30.5,2.7c2.7,1.4,5.4,2.7,7.9,4
		C289.2,246.6,285,245.3,284.8,248.4z"/>
	<path class="st7" d="M315.8,264.7c0,5.5-3.2,10-1,15.5c5-5.9,7.1-4.7,9.1,2.3c1,3.6-2.2,10.6,5.7,10.9c0,0,0,0,0,0
		c0.4-9.2-2.7-17.9-3.9-26.9c-2.2-5.7-3.2-12.1-9.2-16.9c-3.2,7.1-6.1,13.7-10.2,22.9C310.9,268.8,313,267,315.8,264.7z"/>
	<path class="st9" d="M293.1,330.7c-19.1,2.7-37.9,8.7-53.7-7.3C250.3,344.4,273.2,347.5,293.1,330.7z"/>
	<path class="st7" d="M275.1,426.3c-11.9-18.5-23.9-37-35.8-55.4C245.4,393,254,413.7,275.1,426.3z"/>
	<path class="st7" d="M299.8,316.5c-15,3.8-30.4,4.3-46.1,6.9c3.7,7,9.3,6.7,14.8,5.6c7.3-1.4,14.6-2.9,21.6-5
		c6-1.8,11.5-3.3,15.1-0.3C304.9,320.1,305.3,315.1,299.8,316.5z"/>
	<path class="st7" d="M307.6,326.7c-0.6-1.4-1.4-2.4-2.3-3.2C305.5,325.5,305.9,326.9,307.6,326.7z"/>
	<path class="st10" d="M335.3,539.9c-1.4-17.5-1.4-35.1-7.2-51.8C331.5,505.2,321.4,524.3,335.3,539.9z"/>
	<path class="st4" d="M244.1,174.4c10.1-2.9,18.1-0.5,26.1-1.6c4.6-0.7,8.7-2.7,9-8.1c0.1-2.4,0.1-5.1-2.1-6.8
		c-3.1,0-1.7,4.8-4.9,4.6c-1.9-1.7,0.8-5.4-4.2-6.5C268.7,172.2,252.2,164.1,244.1,174.4z"/>
	<path class="st11" d="M296.8,545.2c-0.4,2.7-2.4,7.2,3.4,7.4c5.4,0.2,5.7-3.3,5.3-7.5c-1.1-11.6-2-23.3-3.2-37.3
		C297.5,521.5,298.6,533.6,296.8,545.2z"/>
	<path class="st9" d="M309,133.9c-3.6-10.7-1.8-23.3-10.5-32.4c-0.1-0.1-0.2-0.2-0.3-0.4c-2.6,0.9-6-0.2-7.8,3
		c4.2,4.1,11.2,8.7,9,13.9c-4.8,11.6,0,15.2,9.9,17c0,0,0,0,0,0C309.2,134.7,309.1,134.3,309,133.9z"/>
	<path class="st7" d="M334.4,306.6c-6.7-1.4-13.5-2.7-21.8-1.1c6,4.9,10.7,8.4,15.1,12.3c2.1,1.8,3.8,3.9,6.4,1.2
		c2.8-2.9,7-5.1,6.7-9.7C340.5,305.8,336.7,307.1,334.4,306.6z"/>
	<path class="st7" d="M321.1,170.6c-3.5-4.5-8-7.8-13.3-9.9c-0.7-0.3-1.5-0.6-2.3-0.8c0.1,7.3-1.7,14.3-4.4,22.9
		c7.7-5.2,14.2-8.5,21.3-10.3c0,0,0,0,0,0l0,0C322.1,171.8,321.6,171.2,321.1,170.6z"/>
	<path class="st10" d="M241.3,519.4c7.5-17.3,11.5-35.6,13.9-54.2C247.3,482.4,243.2,500.7,241.3,519.4z"/>
	<path class="st12" d="M243.4,239.7c-13.2-6.8-23.9-12.3-31.4-23.8C214.9,233.1,223.4,239.9,243.4,239.7z"/>
	<path class="st13" d="M260.5,240.1c-4.3,0.3-8,1.2-9.5,5.7c2.2,3.4,9-0.1,8.1,2.3c-4.1,11.3,4.6,4.6,6.6,4.6c4,0.1,3.8-3.6,3.5-6.7
		C268.5,240.7,265.2,239.8,260.5,240.1z"/>
	<path class="st14" d="M259.7,494.1c-7.2,14.5-12.5,29.5-14,45.6C253,525.3,257.7,510.1,259.7,494.1z"/>
	<path class="st7" d="M303.4,341.8c-11.4,5.2-21.3,6-31.2,7.9C287,359.3,291.8,358.3,303.4,341.8z"/>
	<path class="st11" d="M262.3,295.7c0.7,3.2,3.7,6.6,5.8,3.2c3.2-5,2.8-12,0.6-17.3c-2.5-6.3-7.5-0.5-13.9-1.1
		C262.1,285.6,261.3,291,262.3,295.7z"/>
	<path class="st15" d="M226.9,377.5c-1.6,13.8,1,26.3,10.8,36.4C234.1,401.8,230.5,389.7,226.9,377.5z"/>
	<path class="st9" d="M293.9,97.1c1.1-0.9,1.6-1.8-0.9-3.6c-4.4-3.1-9.2-3.5-14.3-3.1c-0.1,0.3-0.2,0.6-0.4,0.9
		c-1.8,3.2-8.6,6.3-1.3,8.8c3.1,1.1,10.1,1.8,14.7-1.4c0,0,0,0,0,0C292.3,98.1,293.2,97.6,293.9,97.1z"/>
	<path class="st13" d="M261.9,430c-5.8-8.8-11.5-17.6-17.3-26.3C245.6,415.8,250.7,425.1,261.9,430z"/>
	<path class="st10" d="M264.6,271.4c4.7-0.1,4.6-2.9,4.2-5.8c-0.4-3.5-0.5-7.7-6.1-7.2c-2.2,1.9-8.2,0.1-7.1,4.3
		C256.6,266.2,258.4,271.5,264.6,271.4z"/>
	<path class="st13" d="M241.7,455.2c-6.1,10.9-6.7,22.8-4.9,34.8C240.2,478.5,242.9,467.2,241.7,455.2z"/>
	<path class="st7" d="M281.7,293.6c1.6,1.9,3.5,4.3,5.7,4.8c3.3,0.7,3.6-3,4.2-5.2c2.2-7.7,0.6-13.1-8.7-12.9
		c-3.2,3.3,7.7,4.9,0.8,7.9C280.3,289.7,279.7,291.1,281.7,293.6z"/>
	<path class="st4" d="M227.8,615c10.7,2.6,16.5-1.6,22.2-8.6C239.1,601.6,235.7,610.7,227.8,615z"/>
	<path class="st11" d="M268.1,142.4c-7.7,4.3-16.2,6.6-23.9,11C253.6,152.8,264,154.8,268.1,142.4z"/>
	<path class="st11" d="M271.4,359.7c-9.7-3.1-17.9-9.7-29.3-15.1C250.3,356.5,259.5,360.8,271.4,359.7z"/>
	<path class="st7" d="M195.7,232.9c-7.7,6.5-12.7,12.9-16.6,23.6C188.6,249.7,193.9,243.4,195.7,232.9z"/>
	<path class="st4" d="M273,90.4c-4.4-0.1-8.8-0.2-13.2-0.1c-1.7,0-2.8,0.7-1.1,2.4c0,0,0,0,0,0c0.5,0.5,1.1,0.9,1.7,1.4
		c2.6,2.3,5.3,4.7,8,7.1c2-3.8,3.8-7.3,5.6-10.8c0,0,0,0,0,0C273.6,90.5,273.3,90.4,273,90.4z"/>
	<path class="st10" d="M339,237.5c-2.7-4.8-4.9-5.6-6.1,0.8c-1.3,7.2-2.6,14.5-3.9,21.7c0,0,0,0,0,0
		C336.9,254.6,333.1,244,339,237.5z"/>
	<path class="st9" d="M173.7,273.9c4.6,1.1,5.8-3.4,8.3-5.6c1.5-1.4,2.4-3.3,3.9-5.4c-2.9-1.1-4.9-0.3-6.7,0.8c-3.1,1.8-6.9,3-7.8,7
		C171.2,271.6,172.7,273.7,173.7,273.9z"/>
	<path class="st15" d="M138.7,278.6c0-1.7-0.4-3.9-2.6-4.3c-2.3-0.4-3.6,1.6-3.3,3.3c1,5.1-2.3,8.9-3.6,15.2
		C135,288.5,138.9,284.7,138.7,278.6z"/>
	<path class="st16" d="M256.5,161.9c-8.4-5.2-13.3,3.6-19.6,2C243.9,168.9,249.1,163.6,256.5,161.9z"/>
	<path class="st9" d="M281.9,144.6c3,2.7,2.2,7.2,4.2,11C290.4,147,290.4,147,281.9,144.6z"/>
	<path class="st14" d="M290,166.8c-3.6,2.4-7.2,4.8-12.2,8C285.1,175.5,288.7,172.9,290,166.8z"/>
	<path class="st17" d="M261.1,138.3c1.8-0.3,3.4-1.5,3.4-4.1c-1-2.6-3.5-1.7-5.6-1.8c-1.7-0.1-3.1,0.8-2.7,2.5
		C256.7,137.5,258.7,138.7,261.1,138.3z"/>
</g>
</svg>
